; Drill file
; Format: 2.4 (00.0000)
M48
INCH
T01C0.0098
%
G05
G90
T01
X012830Y006460
X013230Y006460
X014250Y007010
X015040Y007010
X015830Y007010
X014800Y008580
X014170Y008580
X014090Y009610
X014650Y009610
X015350Y009610
X015910Y010630
X016540Y010240
X015750Y012130
X015750Y012520
X015750Y012910
X015750Y013540
X015750Y013940
X015750Y014330
X014720Y014170
X014720Y014570
X014720Y013780
X014720Y012910
X014720Y012520
X014720Y012130
X014570Y011420
X013460Y009610
X012910Y009610
X012280Y009610
X012280Y011650
X012830Y012990
X010790Y013780
X010790Y012200
X008500Y013070
X008660Y015120
X009060Y016770
X008270Y017480
X008270Y018190
X008270Y018900
X008270Y019530
X008270Y020240
X008270Y020870
X009450Y021420
X009530Y019840
X009450Y018580
X010790Y018500
X010790Y017320
X010790Y016300
X012830Y015280
X012830Y017560
X012280Y018430
X012280Y018980
X012830Y019370
X013780Y020080
X015120Y020390
X015120Y019690
X014650Y018900
X014170Y017950
X015830Y018350
X015910Y017170
X015120Y016380
X018500Y019760
X020630Y021570
X021020Y022130
X021340Y022130
X021650Y022130
X021340Y023150
X022360Y023150
X022990Y022760
X022990Y023620
X023860Y023700
X024250Y024330
X023860Y025120
X023070Y025670
X022600Y026690
X022520Y027170
X023230Y027640
X023390Y028190
X023620Y028740
X023620Y029290
X022910Y030390
X022200Y029840
X021020Y030390
X021020Y031020
X021020Y031650
X021340Y032280
X020470Y032280
X019920Y031650
X019920Y031020
X019920Y030390
X020000Y029210
X020790Y029290
X020160Y028270
X019920Y027240
X019920Y026690
X020240Y026140
X021420Y026220
X022760Y028270
X024570Y028030
X025350Y028350
X026300Y028270
X026460Y029920
X028270Y028500
X028110Y028030
X027800Y027010
X027480Y026060
X026770Y026540
X025750Y026140
X025040Y026690
X027090Y023700
X027090Y023150
X027240Y022440
X027720Y021810
X028580Y021340
X028740Y021890
X028980Y022440
X029690Y021340
X030080Y021340
X030470Y021340
X030310Y021890
X031180Y022280
X031100Y022910
X031970Y023310
X033070Y023700
X033620Y023860
X033620Y023310
X034170Y022360
X033620Y021890
X033230Y021340
X032520Y021890
X031810Y021890
X031420Y020710
X032280Y020240
X032760Y019290
X034720Y019690
X035040Y021340
X035510Y021340
X035350Y021890
X036220Y022280
X036930Y021890
X037560Y021890
X037170Y022830
X037800Y024410
X038110Y024410
X037950Y024960
X037480Y024960
X037800Y025430
X038500Y026060
X038980Y026060
X040000Y026460
X040080Y028030
X041650Y028190
X042280Y028030
X042520Y027480
X043460Y027950
X042520Y029060
X042360Y029530
X040940Y030080
X040310Y030080
X039690Y030550
X039060Y030940
X038820Y030240
X038430Y029530
X039450Y029530
X037870Y028030
X036770Y027480
X036460Y028030
X035830Y028500
X036770Y029060
X036380Y029920
X037010Y030310
X036850Y030940
X035590Y031500
X035590Y031970
X035200Y032990
X034570Y033390
X034410Y034330
X035510Y034330
X035980Y034960
X035120Y035430
X034170Y035980
X033460Y035980
X033310Y037010
X033780Y037950
X033780Y038500
X032520Y039060
X032760Y039610
X032440Y040080
X032990Y040470
X032990Y041420
X032520Y041420
X033860Y041890
X034720Y041420
X035430Y040470
X036220Y040940
X036460Y041500
X035910Y041890
X034960Y042910
X035350Y043460
X035910Y043390
X035510Y044880
X034960Y046460
X036060Y046460
X035910Y047480
X037090Y048110
X037560Y049060
X038270Y048500
X039060Y049450
X039290Y050470
X040240Y049920
X040630Y048980
X040080Y048430
X040870Y047480
X041650Y047950
X041570Y049450
X041810Y050470
X041180Y050940
X039920Y051970
X039210Y052520
X038350Y052990
X037640Y053460
X038110Y051970
X037950Y050940
X036690Y050470
X036690Y049450
X035120Y049920
X033860Y049450
X032990Y048980
X032200Y048430
X033230Y047950
X033070Y046930
X033310Y046460
X033620Y044880
X033460Y043860
X033230Y043390
X032130Y043460
X031500Y043460
X031340Y044880
X030940Y045430
X030470Y044880
X029690Y044490
X029290Y043460
X028820Y043460
X028430Y042910
X029130Y041890
X028660Y041420
X027400Y040470
X027170Y039610
X026850Y038980
X026300Y038110
X027240Y037560
X027950Y038580
X028900Y037010
X029920Y037010
X029690Y035980
X030310Y035980
X031260Y035980
X031420Y034880
X032360Y034330
X031810Y033780
X032910Y033390
X032760Y031970
X032910Y030470
X032280Y030470
X031260Y029920
X030790Y029450
X030870Y028980
X030000Y028660
X029290Y028430
X030160Y027320
X030240Y026140
X031100Y026140
X031500Y027010
X031260Y028030
X031890Y028030
X032830Y028980
X033390Y029920
X034330Y030470
X035430Y030550
X034490Y028980
X034650Y028030
X034170Y026540
X034490Y025590
X034800Y025590
X035120Y025590
X036140Y026060
X036610Y026060
X039370Y024330
X039840Y024880
X042280Y026060
X042680Y026060
X043460Y025510
X043700Y025980
X044570Y025510
X044960Y026460
X045200Y027950
X046220Y028190
X046930Y028030
X047090Y027480
X048350Y027950
X047170Y029060
X047720Y029690
X047010Y030000
X047010Y030470
X046060Y030310
X045750Y031100
X046460Y031500
X045910Y032050
X046540Y032440
X047240Y032990
X046690Y033540
X046930Y034490
X045980Y034960
X046770Y035670
X046220Y036060
X047320Y036060
X047320Y037170
X046380Y037170
X045120Y037560
X044410Y038030
X044410Y038580
X044720Y039130
X045280Y039610
X045430Y040470
X046300Y040940
X045980Y041500
X044800Y041970
X043860Y041970
X043540Y041500
X042680Y041500
X042600Y041970
X041340Y041890
X040310Y041500
X039760Y041890
X038900Y041500
X038660Y040080
X038500Y039610
X038350Y039060
X039130Y038580
X038580Y038110
X038740Y037560
X037560Y037170
X036380Y037640
X036140Y036930
X035200Y036930
X035350Y037640
X037320Y038580
X037560Y040470
X037640Y042910
X037950Y043460
X038980Y044330
X039690Y044800
X040080Y045510
X040870Y045510
X040630Y046460
X039610Y046460
X038430Y046460
X038500Y045980
X038430Y047010
X037240Y045350
X041420Y043390
X041890Y043310
X042830Y043860
X043390Y043390
X044570Y043390
X045120Y043390
X046850Y042910
X047320Y043860
X047870Y043460
X048500Y044880
X049130Y045350
X048740Y045910
X047480Y045510
X046770Y046460
X045430Y046460
X045040Y046460
X044650Y046460
X044650Y045430
X042760Y045430
X042440Y046460
X042990Y046930
X045280Y048030
X046060Y048980
X045350Y049450
X045120Y050470
X045670Y050940
X047560Y051420
X048430Y050940
X049290Y050470
X050390Y050470
X050550Y051420
X052200Y050940
X053540Y050550
X053940Y050550
X054330Y050550
X053780Y049610
X053070Y049060
X052440Y048430
X051650Y048980
X050550Y049450
X050940Y047950
X051890Y047400
X052050Y046380
X052360Y045350
X053150Y045350
X054410Y046380
X055040Y045350
X056460Y045350
X057240Y045350
X057240Y046380
X057800Y046850
X057870Y047480
X057870Y048030
X058820Y046690
X059610Y044960
X060310Y044490
X059530Y044020
X058660Y043460
X057800Y043150
X056930Y042760
X056380Y043150
X055830Y043390
X055280Y043390
X054960Y041890
X053940Y041500
X053700Y040470
X052910Y040470
X052440Y040470
X052050Y041500
X051810Y042050
X052520Y042050
X050630Y042050
X050870Y043460
X050240Y043460
X049450Y044410
X050240Y046380
X049760Y046850
X048660Y047400
X048500Y048030
X048030Y047090
X047170Y048500
X047720Y049530
X048270Y049610
X043780Y051420
X042990Y049920
X042680Y054020
X043540Y054410
X043390Y056140
X045670Y056140
X046060Y054410
X046770Y054410
X048430Y054880
X049920Y054880
X050240Y056140
X051340Y055350
X052050Y056140
X053150Y055430
X054250Y054490
X054880Y056060
X055830Y055430
X056610Y056060
X056690Y056690
X056540Y057240
X056770Y057950
X055670Y057950
X055200Y060000
X055200Y060550
X055430Y061260
X055980Y061260
X056610Y061340
X057090Y061180
X057640Y062600
X058190Y062360
X058740Y061730
X059920Y061810
X060550Y060940
X058740Y060390
X058740Y059690
X058190Y058820
X057640Y059060
X058740Y058110
X058820Y057170
X058660Y056060
X057560Y056060
X059760Y056060
X060240Y056850
X060870Y056610
X061500Y057400
X060790Y058110
X061500Y058430
X061420Y059210
X062050Y059210
X063700Y059290
X064170Y059450
X064720Y060240
X064410Y061260
X065040Y061260
X065590Y062280
X065040Y063230
X064410Y063460
X063780Y063620
X063780Y064960
X064410Y064800
X065040Y064650
X065040Y065980
X065910Y065750
X067720Y064880
X068350Y064570
X068980Y064570
X069920Y065590
X070390Y065200
X070390Y066300
X070390Y067480
X071890Y067480
X072280Y068030
X072050Y069130
X072050Y070710
X071020Y070710
X070470Y071020
X070470Y069920
X068980Y069060
X068270Y068430
X067720Y067480
X067240Y067950
X066770Y068660
X066300Y069690
X065670Y070630
X066770Y071340
X068270Y072830
X067800Y073540
X067240Y074410
X066220Y074330
X065590Y074330
X065040Y074090
X065590Y075120
X065910Y077090
X067400Y077090
X068270Y078270
X067560Y078820
X066300Y078820
X064170Y078660
X063860Y079450
X062910Y079610
X061650Y078500
X060870Y078500
X060390Y079840
X059840Y080160
X061260Y080710
X061890Y081020
X061100Y081420
X061650Y082600
X061180Y082830
X061180Y083390
X062200Y082990
X062760Y083150
X063310Y083860
X062760Y084570
X062760Y085750
X062200Y085910
X061650Y086300
X062200Y086610
X063310Y086060
X064020Y086540
X064250Y087950
X063700Y088270
X062360Y088190
X062360Y089060
X062910Y089370
X061970Y089920
X061970Y090470
X062520Y091100
X063390Y090630
X063860Y091970
X065590Y091500
X066140Y091180
X066690Y090940
X068190Y091100
X068270Y090080
X067720Y089760
X068270Y088740
X068820Y089060
X069290Y088270
X069840Y087800
X070390Y088030
X070390Y088980
X069840Y089760
X070390Y090630
X070390Y091730
X069290Y091810
X069290Y090710
X070310Y093070
X071420Y092200
X071970Y092440
X071890Y093310
X072440Y093310
X073070Y094330
X073620Y093620
X074650Y094570
X075350Y093940
X076060Y093780
X077010Y093460
X077480Y095120
X077480Y095980
X076540Y096300
X076540Y097320
X076610Y098500
X075750Y098820
X075910Y099530
X075910Y100390
X074650Y100390
X072910Y100390
X072910Y101020
X072910Y101650
X071810Y101650
X071810Y101020
X071810Y100390
X071810Y099690
X072280Y098820
X072600Y098820
X072910Y098820
X072910Y099690
X074330Y098580
X074650Y098580
X074330Y096850
X075350Y096930
X075350Y095430
X073620Y095590
X073230Y095590
X072680Y096060
X071890Y095120
X071020Y095350
X070470Y095830
X069920Y096380
X069130Y096380
X069370Y097480
X070080Y097950
X071180Y097400
X071340Y098190
X072280Y097400
X072600Y097400
X072910Y097400
X070000Y094720
X069370Y094330
X068580Y093620
X067870Y095200
X067090Y094720
X066540Y095430
X066540Y096380
X065980Y096300
X064880Y095980
X063310Y096220
X062520Y096300
X063310Y097090
X063310Y097640
X062520Y098190
X063860Y098660
X064490Y098980
X063540Y100160
X063700Y100710
X064090Y100710
X062990Y100710
X062990Y101810
X062050Y102280
X061810Y103700
X062990Y103700
X065040Y103150
X065980Y103540
X065980Y104170
X065980Y105280
X065980Y105980
X065280Y105980
X064330Y105980
X063620Y105980
X062440Y106690
X062440Y107320
X062440Y107950
X062440Y108430
X062440Y109060
X062440Y109690
X061180Y107950
X061180Y107170
X061180Y106300
X059530Y105980
X058820Y105980
X058740Y106610
X058580Y107560
X058580Y108270
X059210Y108500
X058270Y110000
X058980Y110390
X057170Y109610
X057170Y108660
X057170Y107800
X055200Y108190
X055200Y108820
X054490Y109060
X054090Y108500
X053620Y109060
X053230Y108500
X052760Y109060
X052360Y108500
X051810Y109060
X051500Y108500
X051020Y109060
X050630Y108500
X050000Y108740
X048580Y108740
X048030Y108500
X047640Y109060
X047090Y108500
X046770Y109060
X046220Y108500
X045910Y109060
X045350Y108500
X045040Y109060
X044490Y108500
X044170Y109060
X043540Y108820
X043540Y108190
X042760Y108190
X042760Y108820
X042200Y109060
X041890Y108500
X041340Y109060
X040940Y108500
X040470Y109060
X040080Y108500
X039610Y109060
X039210Y108500
X038660Y109060
X038350Y108500
X037720Y108740
X036300Y108740
X035750Y108500
X035350Y109060
X034880Y108500
X034490Y109060
X033940Y108500
X033620Y109060
X033070Y108500
X032760Y109060
X032200Y108500
X031810Y109060
X031260Y108820
X031260Y108190
X030470Y108190
X030470Y108820
X029920Y109060
X029530Y108500
X029060Y109060
X028660Y108500
X028110Y109060
X027800Y108500
X027240Y109060
X026930Y108500
X026460Y109060
X026060Y108500
X025430Y108820
X024020Y108820
X023390Y108500
X023070Y109060
X022520Y108500
X022200Y109060
X021650Y108500
X021340Y109060
X020790Y108500
X020470Y109060
X019920Y108500
X019530Y109060
X018980Y108820
X018980Y108190
X018190Y108190
X018190Y108820
X017560Y109060
X017240Y108500
X016770Y109060
X016380Y108500
X015830Y109060
X015510Y108500
X014960Y109060
X014650Y108500
X014090Y109060
X013780Y108500
X013150Y108820
X014020Y106690
X014960Y106690
X015830Y106690
X015590Y105910
X016540Y105910
X016690Y106690
X017870Y105200
X018430Y105200
X018820Y105200
X019370Y105200
X020390Y104650
X020710Y105910
X020550Y106690
X021340Y106690
X021570Y105910
X022280Y106690
X023150Y106690
X023150Y105200
X024090Y105200
X025350Y105200
X026300Y105200
X026380Y106690
X027240Y106690
X028110Y106690
X027870Y105910
X028820Y105910
X028980Y106690
X030160Y105200
X030710Y105200
X031100Y105200
X031570Y105200
X032680Y104650
X032990Y105910
X032830Y106690
X033700Y106690
X033860Y105910
X034570Y106690
X035430Y106690
X035430Y105200
X036380Y105200
X037640Y105200
X038580Y105200
X038660Y106690
X039530Y106690
X040390Y106690
X040160Y105910
X041100Y105910
X041260Y106690
X042440Y105200
X042990Y105200
X043390Y105200
X043860Y105200
X044960Y104650
X045200Y105910
X045120Y106690
X045980Y106690
X046140Y105910
X046850Y106690
X047720Y106690
X047800Y105200
X048660Y105200
X049920Y105200
X050870Y105200
X050940Y106690
X051730Y106690
X052680Y106690
X052440Y105910
X053390Y105910
X053540Y106690
X054720Y105200
X055280Y105200
X053700Y104650
X055200Y102680
X055980Y102680
X057400Y102200
X057950Y102200
X058110Y101570
X058110Y100870
X057170Y100310
X057170Y099530
X057170Y098740
X057170Y098190
X057170Y097560
X057170Y097010
X058030Y096850
X058580Y097640
X058580Y099060
X059690Y099610
X059130Y100390
X059130Y101810
X060630Y100710
X060870Y100000
X061730Y099530
X061730Y100630
X060240Y098430
X060790Y097640
X060790Y097320
X060790Y097010
X061340Y097320
X059760Y096770
X060240Y095910
X060790Y095200
X061970Y094090
X062520Y093230
X063310Y094250
X065510Y094330
X066460Y097950
X067090Y097950
X067640Y097950
X068270Y097950
X068500Y098500
X067950Y098980
X066460Y098900
X065980Y102760
X067320Y102760
X067320Y103540
X067320Y104170
X067320Y105280
X067640Y105980
X066930Y105980
X065200Y105040
X068740Y105200
X069370Y105200
X070550Y105200
X071020Y105200
X072130Y104570
X072360Y105980
X072200Y106690
X073070Y106690
X073310Y105980
X074020Y106690
X074880Y106690
X074960Y105200
X075910Y105200
X076690Y105200
X077170Y105200
X078270Y104570
X078500Y105980
X078430Y106690
X079290Y106690
X079450Y105980
X080160Y106690
X081020Y106690
X081020Y105200
X081970Y105200
X084170Y105200
X085040Y105200
X086060Y105750
X086540Y105200
X086540Y104650
X086060Y104570
X085670Y103700
X085040Y103700
X084720Y102280
X083390Y102280
X081260Y102280
X079290Y102280
X077870Y102760
X079920Y104090
X079530Y108500
X079210Y109060
X078660Y108500
X078350Y109060
X077800Y108500
X077480Y109060
X076850Y108820
X076850Y108190
X075750Y108740
X075120Y108500
X074800Y109060
X074330Y108500
X073940Y109060
X073390Y108500
X073070Y109060
X072520Y108500
X072200Y109060
X071650Y108500
X071260Y109060
X070630Y108820
X070630Y108270
X069290Y109370
X068500Y109370
X067560Y109370
X066850Y109370
X065910Y109370
X065200Y109370
X068660Y102360
X070000Y101340
X077240Y099530
X077800Y099610
X077870Y098580
X078820Y099450
X079530Y099450
X080160Y099450
X080710Y098740
X081100Y099450
X081730Y099450
X082360Y099450
X082360Y098980
X083390Y099450
X084250Y098820
X084250Y098270
X084250Y097720
X084250Y097170
X084250Y096610
X082830Y096610
X081890Y095830
X081420Y096060
X080710Y095510
X080310Y094720
X079690Y094650
X078980Y094570
X078500Y094570
X079060Y093390
X080710Y093700
X081810Y094570
X082910Y094960
X083310Y093700
X084330Y093700
X084330Y093150
X084330Y092600
X084330Y092050
X084330Y091500
X084330Y090940
X084330Y090390
X084330Y089840
X084720Y089210
X084330Y088500
X084330Y087950
X083310Y087950
X081810Y088270
X080790Y087640
X079760Y087090
X078980Y086930
X079060Y085750
X079690Y085750
X080310Y085670
X080790Y086460
X082360Y085430
X083700Y084880
X083700Y084490
X083700Y084090
X084330Y084650
X084330Y085200
X084330Y085750
X084330Y086300
X086220Y086300
X086220Y086850
X086220Y087400
X086220Y087950
X086220Y088500
X086770Y089210
X087320Y089840
X087320Y090390
X087320Y090940
X087320Y091500
X087320Y092050
X087320Y092600
X087320Y093150
X087320Y093700
X087870Y094330
X088430Y094960
X088430Y095510
X088430Y096060
X088430Y096610
X088430Y097170
X088430Y097720
X088430Y098270
X088430Y098820
X088900Y099450
X089530Y098820
X089530Y098270
X089530Y097720
X089530Y097170
X089530Y096610
X089530Y096060
X090630Y096060
X090630Y096610
X090630Y097170
X090630Y097720
X090630Y098270
X090630Y098820
X090390Y099450
X091730Y098820
X091730Y098270
X091730Y097720
X091730Y097170
X091730Y096610
X091730Y096060
X091730Y095510
X091730Y094960
X092280Y094330
X091730Y093700
X091730Y093150
X091730Y092600
X091730Y092050
X091730Y091500
X091730Y090940
X091730Y090390
X091730Y089840
X092280Y089210
X092830Y089840
X093390Y089210
X094490Y089210
X095040Y089840
X095590Y089210
X095910Y089840
X095910Y090390
X095910Y090940
X095910Y091500
X095910Y092050
X095910Y092600
X095910Y093150
X095910Y093700
X095590Y094330
X095910Y094960
X095910Y095510
X095910Y096060
X095910Y096610
X095910Y097170
X095910Y097720
X095910Y098270
X095910Y098820
X096540Y098660
X097240Y098190
X097950Y098190
X097800Y099450
X097170Y099450
X098430Y099450
X099130Y099450
X099760Y099450
X100390Y099450
X101020Y099450
X102280Y099530
X102760Y099530
X103310Y099530
X102760Y098500
X102200Y097640
X102200Y097170
X101020Y097090
X100390Y097090
X099690Y098190
X098500Y096930
X098580Y095830
X099290Y095750
X100310Y095040
X101260Y094880
X102360Y094800
X101890Y093940
X101890Y093150
X101890Y092280
X101890Y091500
X101890Y090710
X101890Y089840
X101890Y089060
X100790Y088500
X100160Y088500
X099690Y089920
X098580Y090080
X098580Y088900
X097870Y087480
X097240Y087400
X096540Y087720
X095910Y087950
X095910Y088500
X096540Y089130
X097240Y089840
X096540Y090550
X097240Y091100
X098030Y091340
X098580Y092200
X097870Y092520
X097240Y093620
X097240Y094410
X096540Y095120
X097240Y095750
X096540Y096380
X097240Y096930
X096540Y097480
X095040Y097720
X095040Y098270
X095040Y098820
X094800Y099450
X093310Y099450
X091890Y099450
X091570Y100710
X091020Y103460
X092520Y104020
X093150Y105280
X093860Y105670
X092760Y106850
X092280Y106850
X092760Y107320
X091970Y108030
X091340Y108030
X090470Y108030
X090160Y107240
X089610Y107240
X089130Y106540
X089530Y106060
X088430Y104650
X087950Y104650
X087720Y104020
X087170Y105200
X087170Y105830
X087170Y106140
X087170Y106770
X087480Y106770
X087480Y107240
X087400Y108030
X088030Y108030
X088030Y108900
X088820Y108500
X089690Y108660
X089690Y109840
X088820Y109920
X088820Y109530
X088350Y109920
X088580Y111500
X089690Y111500
X090630Y111500
X092600Y111500
X093860Y111500
X095510Y111500
X097010Y111500
X098030Y111500
X097870Y109920
X098270Y109920
X097800Y109530
X097010Y109760
X097010Y108740
X097800Y108580
X098580Y108900
X098580Y108030
X099210Y108030
X100080Y108030
X101100Y108740
X100940Y109210
X100940Y109840
X101500Y109840
X102440Y109530
X102050Y108900
X102760Y108820
X102760Y108270
X102990Y108030
X104090Y108030
X105200Y108900
X105590Y109530
X105980Y108820
X105980Y108270
X106220Y108030
X107320Y108030
X107870Y108030
X108500Y109130
X109450Y110160
X109840Y111500
X110710Y109530
X111730Y109130
X112360Y108660
X112360Y108030
X112050Y108030
X111420Y108030
X110940Y108430
X111100Y107090
X111970Y107090
X113310Y108030
X114090Y108030
X114410Y107560
X114490Y106690
X114410Y105590
X115200Y104650
X116300Y104800
X116930Y105910
X117720Y106540
X117400Y107950
X118350Y107950
X119130Y107800
X119060Y108580
X119060Y109290
X119060Y109920
X118350Y109920
X117870Y110790
X119060Y110710
X120940Y110790
X120940Y109690
X120940Y108580
X122130Y108430
X122680Y108270
X122680Y107090
X120940Y106540
X121500Y105200
X121500Y104330
X122050Y104020
X122680Y104020
X122130Y102830
X121570Y102600
X122680Y102440
X120470Y101650
X120550Y101260
X120550Y100790
X120550Y100310
X120550Y099920
X120550Y099450
X120550Y098980
X119920Y099370
X119920Y099760
X119920Y100080
X119920Y100470
X119920Y100870
X119530Y100940
X119060Y100940
X118980Y100390
X119290Y100390
X119290Y100000
X119290Y099290
X118580Y099060
X118580Y098580
X118580Y098030
X118430Y097720
X118030Y097720
X118820Y097720
X118740Y096220
X118270Y096220
X117950Y096220
X117950Y095910
X117950Y095590
X117950Y095280
X117950Y094960
X117950Y094650
X117640Y094650
X117240Y094650
X116770Y094650
X116770Y094960
X116770Y095350
X116770Y095910
X116770Y096380
X116770Y097170
X116930Y098350
X117640Y099760
X118580Y099610
X117560Y101340
X118190Y101650
X118660Y101650
X119130Y101650
X119530Y101650
X120000Y101650
X118350Y102600
X117560Y102990
X117480Y104090
X118110Y105120
X118900Y105040
X118900Y103860
X120160Y103780
X120160Y104960
X117950Y108820
X117090Y109130
X115510Y109130
X115910Y110390
X116460Y111500
X113940Y111500
X112360Y111500
X112280Y109920
X110630Y113620
X107240Y111500
X105750Y111500
X104020Y111500
X102520Y111500
X101100Y111500
X099920Y111500
X095910Y109920
X095910Y109610
X095200Y109920
X095120Y108900
X095120Y108030
X094490Y108030
X093620Y108030
X092760Y108580
X091970Y108900
X092760Y109530
X092760Y109840
X092440Y109840
X095910Y108500
X095910Y107320
X095910Y106220
X097870Y106770
X097870Y107320
X097870Y104650
X098820Y104650
X100310Y104020
X100710Y104650
X101260Y104650
X101420Y105750
X102600Y104650
X103070Y103460
X102680Y102990
X102280Y102990
X101420Y101810
X100310Y102990
X099060Y102990
X097870Y102990
X097170Y104020
X095350Y103540
X095910Y101180
X095040Y097170
X095040Y096610
X095040Y095510
X095040Y094960
X094490Y094330
X093390Y094330
X093940Y095510
X092830Y095510
X091180Y094330
X090630Y094960
X090630Y095510
X089530Y094960
X090080Y094330
X089530Y093700
X089530Y093150
X089530Y092600
X089530Y092050
X089530Y091500
X089530Y090940
X089530Y090390
X089530Y089840
X090080Y089210
X090630Y089840
X090630Y090390
X090630Y090940
X090630Y091500
X090630Y092050
X090630Y092600
X090630Y093150
X090630Y093700
X088980Y094330
X088430Y093700
X088430Y093150
X088430Y092600
X088430Y092050
X088430Y091500
X088430Y090940
X088430Y090390
X088430Y089840
X088980Y089210
X088430Y088500
X088430Y087950
X088430Y087400
X088430Y086850
X088430Y086300
X088430Y085750
X088430Y085200
X088430Y084650
X087870Y084090
X087320Y084650
X087320Y085200
X087320Y085750
X087320Y086300
X087320Y086850
X087320Y087400
X087320Y087950
X087320Y088500
X087870Y089210
X086220Y089840
X086220Y090390
X086220Y090940
X086220Y091500
X086220Y092050
X086220Y092600
X086220Y093150
X086220Y093700
X086770Y094330
X087320Y094960
X087320Y095510
X087320Y096060
X087320Y096610
X087320Y097170
X087320Y097720
X087320Y098270
X087320Y098820
X087400Y099450
X086220Y099920
X086220Y098820
X086220Y098270
X086220Y097720
X086220Y097170
X086220Y096610
X086220Y096060
X086220Y095510
X086220Y094960
X084720Y094330
X084250Y094960
X081340Y097320
X080710Y096610
X080240Y097320
X079610Y095750
X078500Y097240
X075350Y092760
X075350Y091810
X075350Y091340
X075350Y090550
X074720Y090470
X075120Y089920
X075120Y089130
X075670Y088580
X075430Y087950
X075980Y087800
X076220Y086300
X076220Y085350
X076140Y084090
X075590Y083860
X074490Y084960
X074490Y085430
X074490Y085910
X073940Y085120
X073310Y086060
X072760Y085590
X072360Y084720
X070390Y084490
X070390Y083700
X070390Y082520
X069920Y081570
X069290Y081570
X069290Y082680
X067480Y083620
X066850Y082990
X065750Y082440
X065200Y082360
X065200Y083150
X066300Y084090
X066770Y085830
X067320Y085830
X065750Y086690
X065200Y085670
X064960Y088900
X065750Y089530
X060790Y092050
X059760Y092760
X058580Y092200
X056930Y092910
X055750Y093780
X054250Y095350
X053620Y095510
X052990Y095510
X052050Y095830
X051650Y095350
X052050Y094880
X052600Y094330
X052990Y093390
X053620Y094490
X053820Y096770
X053390Y096770
X054250Y096770
X054880Y096690
X055830Y096690
X056930Y095670
X058580Y094410
X056460Y091500
X058030Y090470
X058030Y088430
X058030Y087560
X058430Y085510
X057870Y084720
X057870Y084330
X057870Y083940
X058430Y082990
X057870Y081970
X058430Y081340
X057950Y080630
X057720Y080080
X057720Y079290
X058350Y079210
X058500Y077950
X056220Y077800
X056220Y078500
X055350Y078110
X054650Y078820
X054090Y078030
X054650Y076850
X054090Y076140
X053460Y075980
X052910Y075830
X051810Y075350
X052200Y074330
X051810Y073390
X050870Y074330
X049690Y074330
X048820Y073390
X048350Y074330
X047640Y074330
X047240Y073390
X046300Y074330
X045120Y074330
X044170Y073390
X043780Y074330
X042990Y074330
X042600Y073390
X041730Y074330
X040470Y074330
X039610Y073390
X039130Y074330
X038430Y074330
X038030Y073390
X037090Y074330
X035910Y074330
X034960Y073390
X034570Y074330
X033780Y074330
X033390Y073390
X032520Y074330
X031260Y074330
X030000Y074330
X029210Y074330
X028740Y073390
X027870Y074330
X026690Y074330
X025750Y073390
X025350Y074330
X024570Y074330
X024170Y073390
X023310Y074330
X022050Y074330
X021180Y073390
X020710Y074330
X020000Y074330
X019610Y073390
X018660Y074330
X017400Y074330
X016610Y073390
X016140Y074330
X016610Y075350
X018030Y076460
X016610Y077480
X016140Y078500
X017480Y078500
X017090Y079530
X016060Y080080
X016460Y080870
X016460Y081420
X017560Y082050
X017170Y082910
X017320Y083540
X018030Y084020
X018820Y083540
X018980Y082910
X019610Y083070
X020080Y084170
X020710Y084170
X020710Y085040
X020080Y085040
X019370Y085040
X018740Y085040
X018740Y086220
X019690Y086770
X019370Y087560
X018350Y087480
X017800Y087480
X016690Y087560
X016690Y088190
X016060Y088190
X017240Y088900
X017560Y089610
X016460Y089760
X016540Y090870
X016460Y091890
X016140Y091890
X016140Y092990
X016460Y092990
X017400Y093860
X017800Y093310
X018900Y093230
X018740Y092360
X017560Y092050
X018430Y094250
X020000Y093780
X020630Y093780
X021340Y093070
X022280Y093620
X023150Y094020
X023070Y093070
X023860Y092680
X023940Y093390
X023310Y092130
X023860Y091500
X024570Y089760
X024170Y089210
X024170Y088580
X023460Y089290
X022280Y089210
X022280Y089760
X021420Y090310
X021970Y090870
X020160Y092360
X021570Y094720
X022360Y095670
X022830Y095200
X023860Y094960
X025040Y094960
X025590Y094960
X025350Y094090
X025510Y093390
X025750Y092760
X026850Y093310
X027400Y093230
X028190Y093390
X028980Y093310
X028820Y092280
X028660Y091810
X027720Y092280
X027720Y091260
X026540Y091730
X025980Y090000
X025590Y089370
X025980Y087480
X025590Y086770
X024960Y086220
X024330Y086690
X024020Y087560
X023150Y088110
X022600Y088430
X022440Y087480
X022910Y087480
X023310Y086220
X023390Y085040
X024020Y085040
X024650Y085040
X025280Y085040
X025910Y085040
X026610Y085040
X026650Y086220
X027950Y086220
X028980Y086690
X029610Y086220
X030240Y086690
X030550Y087560
X031570Y087480
X032130Y087480
X032360Y088110
X033230Y087560
X033540Y086690
X034170Y086220
X034800Y086690
X035120Y087560
X034880Y088030
X035040Y088580
X034880Y089370
X035280Y090390
X036380Y091180
X037090Y091650
X036850Y092440
X037800Y092680
X038030Y093460
X037090Y093620
X037720Y094800
X038110Y095430
X038030Y095980
X038190Y096540
X037480Y097090
X036610Y097170
X036140Y097170
X036140Y096540
X035200Y096060
X035430Y095280
X035830Y094410
X035040Y094250
X034090Y094020
X033620Y094570
X033390Y095120
X032760Y095120
X032130Y096220
X033150Y096770
X033230Y097320
X032910Y098030
X031890Y098030
X030870Y098030
X030940Y096220
X030000Y096140
X028580Y095280
X028820Y094650
X027640Y094330
X027870Y095590
X027320Y096220
X026690Y096770
X025980Y097320
X026220Y098030
X027320Y098030
X028270Y098030
X028660Y097320
X028190Y096770
X026540Y095040
X025120Y095830
X024410Y096220
X023310Y096140
X021810Y096220
X021500Y096770
X021890Y097320
X021650Y098030
X022680Y098030
X023700Y098030
X024090Y100390
X023390Y101180
X024090Y101650
X024800Y101180
X025120Y101180
X025830Y101650
X026540Y101180
X025830Y100390
X028030Y101180
X028740Y101650
X029370Y101180
X029760Y101180
X030470Y101650
X031180Y101180
X032680Y101180
X033310Y101650
X034020Y101180
X034330Y101180
X035040Y101650
X035750Y101180
X037240Y101180
X037950Y101650
X038580Y101180
X038980Y101180
X039610Y101650
X040390Y101180
X041810Y101180
X042520Y101650
X043230Y101180
X043540Y101180
X044250Y101650
X044960Y101180
X046460Y101180
X047090Y101650
X047800Y101180
X048190Y101180
X048820Y101650
X049530Y101180
X051020Y101180
X051730Y101650
X052440Y101180
X052680Y101810
X053310Y102130
X053780Y102130
X054250Y102130
X055510Y099690
X055510Y098820
X056140Y098980
X054170Y099210
X053150Y099210
X053620Y098270
X053820Y097870
X053390Y097870
X054250Y097870
X051890Y096460
X051420Y097090
X051340Y098030
X050310Y098030
X050390Y097090
X049290Y098030
X048980Y096460
X048500Y095830
X049450Y095280
X050000Y094020
X050160Y093460
X050160Y092440
X049450Y092360
X048660Y092440
X049060Y093460
X048190Y094720
X047090Y094800
X047010Y095430
X045590Y095430
X045510Y094800
X045120Y093700
X045510Y092830
X046460Y092910
X046930Y092130
X046380Y091260
X046850Y091100
X047480Y090160
X048900Y091100
X049760Y090790
X050470Y089690
X050870Y089060
X050790Y087560
X050000Y087480
X048980Y087560
X048580Y086690
X048030Y086220
X047320Y086690
X047010Y087560
X046930Y088030
X045980Y087480
X045430Y087480
X044330Y087560
X044020Y086690
X043390Y086220
X042760Y086690
X042440Y087560
X041340Y087480
X040790Y087480
X039760Y087560
X039450Y086690
X038820Y086220
X038110Y086690
X037800Y087560
X036770Y087480
X036220Y087480
X035830Y086220
X035830Y085040
X035120Y085040
X034490Y085040
X033860Y085040
X033230Y085040
X032520Y085040
X032520Y086220
X031260Y086220
X031180Y085040
X030550Y085040
X029920Y085040
X029210Y085040
X028580Y085040
X027950Y085040
X027240Y084020
X026540Y083540
X026380Y082910
X025670Y083070
X025280Y084170
X024650Y084170
X024250Y083070
X023540Y082910
X023390Y083540
X022680Y084020
X021890Y083540
X021810Y082910
X021100Y083070
X022130Y082050
X023150Y082050
X024250Y081420
X024170Y080870
X024650Y080000
X025280Y080000
X025750Y080870
X025670Y081420
X026770Y082050
X027800Y082050
X028110Y082910
X027950Y083540
X028820Y083070
X029210Y084170
X029920Y084170
X030310Y083070
X030940Y082910
X031100Y083540
X031890Y084020
X032600Y083540
X032760Y082910
X033460Y083070
X033860Y084170
X034490Y084170
X034880Y083070
X035590Y082910
X035750Y083540
X036460Y084020
X037170Y083540
X037320Y082910
X038030Y083070
X038430Y084170
X039130Y084170
X039130Y085040
X039760Y085040
X040390Y085040
X040470Y086220
X041730Y086220
X041810Y085040
X042440Y085040
X043070Y085040
X043700Y085040
X044330Y085040
X044960Y085040
X045040Y086220
X046380Y086220
X046380Y085040
X047010Y085040
X047640Y085040
X048270Y085040
X048980Y085040
X049610Y085040
X049690Y086220
X050630Y086220
X051020Y085040
X051570Y085040
X052280Y085040
X052830Y084410
X052280Y084170
X053310Y083860
X054250Y083460
X054570Y082680
X056380Y081970
X056140Y081340
X055750Y080390
X054720Y080710
X054090Y080080
X052990Y079610
X052280Y080000
X052910Y080470
X051810Y080870
X051890Y081340
X050790Y082050
X049840Y082050
X049450Y082990
X049530Y083540
X050310Y084020
X051020Y083540
X051180Y082910
X051890Y083070
X050310Y080870
X048740Y080870
X048740Y081340
X048270Y080000
X047720Y080000
X047240Y080870
X047240Y081340
X046140Y082050
X045200Y082050
X044800Y082910
X044960Y083540
X045670Y084020
X046460Y083540
X046540Y082910
X047240Y083070
X047640Y084170
X048270Y084170
X048740Y083070
X049290Y079530
X049690Y078500
X050870Y078500
X051260Y079530
X052200Y078500
X051810Y077480
X050310Y076460
X048820Y077480
X048350Y078500
X047640Y078500
X047240Y077480
X046300Y078500
X046690Y079530
X045670Y080870
X044170Y080870
X044170Y081340
X043700Y080000
X043070Y080000
X042600Y080870
X042600Y081340
X041570Y082050
X040630Y082050
X040240Y082910
X040310Y083540
X041100Y084020
X041810Y083540
X041970Y082910
X042600Y083070
X043070Y084170
X043700Y084170
X044170Y083070
X044720Y079530
X045120Y078500
X043780Y078500
X042990Y078500
X042600Y077480
X041650Y078500
X042050Y079530
X041100Y080870
X039530Y080870
X039530Y081340
X039060Y080000
X038500Y080000
X038030Y080870
X038030Y081340
X036930Y082050
X035980Y082050
X036460Y080870
X034880Y080870
X034880Y081340
X034490Y080000
X033860Y080000
X033460Y080870
X033460Y081340
X032360Y082050
X031420Y082050
X030310Y081420
X030310Y080870
X029840Y080000
X029290Y080000
X028820Y080870
X028820Y081420
X027240Y080870
X026300Y079530
X026690Y078500
X027870Y078500
X028270Y079530
X029210Y078500
X029920Y078500
X030390Y077480
X031260Y078500
X030870Y079530
X031890Y080870
X032830Y079530
X032440Y078500
X033780Y078500
X034570Y078500
X034960Y077480
X035910Y078500
X035510Y079530
X037090Y078500
X037480Y079530
X038430Y078500
X039130Y078500
X039610Y077480
X040470Y078500
X040080Y079530
X038030Y077480
X036460Y076460
X034960Y075350
X033390Y075350
X031890Y076460
X033390Y077480
X030390Y075350
X028740Y075350
X027240Y076460
X025750Y077480
X025350Y078500
X024570Y078500
X024170Y077480
X023310Y078500
X023620Y079530
X022680Y080870
X021100Y080870
X021100Y081420
X020710Y080000
X020080Y080000
X019610Y080870
X019610Y081420
X018580Y082050
X018030Y080870
X019060Y079530
X018660Y078500
X020000Y078500
X020710Y078500
X021180Y077480
X022050Y078500
X021650Y079530
X019610Y077480
X019610Y075350
X021180Y075350
X022680Y076460
X024170Y075350
X025750Y075350
X027240Y072280
X025750Y071260
X025350Y070240
X024570Y070240
X024170Y069210
X023310Y070240
X022050Y070240
X020710Y070240
X020000Y070240
X019610Y069210
X018660Y070240
X017480Y070240
X016140Y070240
X016610Y071260
X018030Y072280
X019610Y071260
X021180Y071260
X022680Y072280
X024170Y071260
X025750Y069210
X026690Y070240
X027870Y070240
X029210Y070240
X030000Y070240
X030390Y071260
X031260Y070240
X032520Y070240
X033780Y070240
X034570Y070240
X034960Y069210
X035910Y070240
X037090Y070240
X038430Y070240
X039130Y070240
X039610Y071260
X040470Y070240
X041730Y070240
X042990Y070240
X043780Y070240
X044170Y069210
X045120Y070240
X046300Y070240
X047640Y070240
X048350Y070240
X048820Y069210
X049690Y070240
X050870Y070240
X052200Y070240
X051810Y071260
X052910Y071890
X053460Y072130
X054090Y072200
X054650Y072680
X055750Y073230
X056540Y073620
X057240Y073940
X057090Y074650
X057090Y075430
X055910Y075980
X055750Y074880
X055750Y074250
X054650Y074330
X054090Y073860
X055750Y071970
X056540Y072130
X057240Y072910
X057950Y073310
X058660Y073620
X059370Y072990
X060000Y073070
X060000Y072200
X059450Y072200
X058660Y072200
X058110Y072200
X058660Y071020
X058110Y070550
X058110Y069530
X058660Y069690
X059210Y069530
X058660Y068740
X059760Y068660
X060390Y069210
X060240Y070310
X060940Y070630
X061420Y069840
X062050Y070870
X061420Y071970
X060790Y071970
X060390Y071500
X059290Y070550
X057090Y071020
X056460Y070940
X056140Y070080
X055510Y069370
X056140Y068900
X056610Y069130
X057170Y069130
X057560Y068580
X058110Y067640
X058190Y067010
X057560Y066850
X058190Y066140
X057640Y065910
X058740Y065510
X059530Y065910
X060080Y065910
X060710Y065910
X061180Y065910
X062200Y065430
X062760Y065590
X061650Y064170
X060710Y064410
X058740Y063940
X057090Y064720
X056140Y064410
X055910Y063860
X055910Y063540
X054720Y064170
X054330Y063460
X053460Y064490
X052990Y064650
X053460Y065200
X054090Y065200
X054720Y065750
X056060Y066300
X056220Y066770
X055510Y068030
X054720Y068030
X054090Y068740
X053460Y068740
X052910Y068580
X051810Y069210
X050310Y068190
X051810Y067090
X052200Y066060
X052280Y064880
X051570Y063860
X051020Y063150
X052200Y062600
X053150Y061420
X054020Y060870
X054570Y061180
X053620Y060310
X053150Y058660
X052050Y058660
X051420Y059760
X051340Y060710
X051970Y060870
X050310Y061810
X049290Y060710
X048660Y060870
X049210Y059760
X048580Y058660
X047480Y058660
X046770Y059760
X046690Y060710
X047400Y060870
X047640Y062600
X048350Y062600
X049530Y063150
X049060Y063860
X049840Y064880
X050790Y064880
X050940Y066060
X049690Y066060
X048350Y066060
X047560Y066060
X047240Y067090
X046300Y066060
X045120Y066060
X045200Y064880
X046140Y064880
X046930Y063860
X046460Y063150
X044960Y063150
X044490Y063860
X043700Y064880
X043070Y064880
X042990Y066060
X043780Y066060
X044170Y067090
X042600Y067090
X041730Y066060
X041570Y064880
X040630Y064880
X040470Y066060
X039130Y066060
X038430Y066060
X038030Y067090
X037090Y066060
X035910Y066060
X035980Y064880
X036930Y064880
X037720Y063860
X037240Y063150
X038430Y062600
X039210Y062600
X040310Y063150
X039840Y063860
X039130Y064880
X038500Y064880
X039610Y067090
X041100Y068190
X039610Y069210
X038030Y069210
X036460Y068190
X034960Y067090
X034570Y066060
X033860Y066060
X033390Y067090
X032520Y066060
X032360Y064880
X031420Y064880
X031260Y066060
X029920Y066060
X029210Y066060
X028740Y067090
X027870Y066060
X026690Y066060
X026850Y064880
X027720Y064880
X028500Y063860
X028030Y063150
X029210Y062600
X030000Y062600
X031100Y063150
X030630Y063860
X029840Y064880
X029290Y064880
X030390Y067090
X031890Y068190
X030390Y069210
X028740Y069210
X027240Y068190
X025750Y067090
X025350Y066060
X024650Y066060
X024170Y067090
X023310Y066060
X023150Y064880
X022200Y064880
X022050Y066060
X020710Y066060
X020000Y066060
X019610Y067090
X018660Y066060
X017480Y066060
X017640Y064880
X018500Y064880
X019290Y063860
X018820Y063150
X020000Y062600
X020790Y062600
X021970Y063150
X021420Y063860
X020710Y064880
X020080Y064880
X021180Y067090
X022680Y068190
X021180Y069210
X018030Y068190
X016610Y069210
X016610Y067090
X016140Y066060
X016060Y064800
X016850Y063860
X017320Y063150
X016140Y062600
X016380Y060870
X017010Y060710
X017010Y059760
X015280Y059760
X014090Y058980
X013700Y058350
X012830Y057720
X012280Y057320
X012280Y056690
X012830Y055830
X014170Y056300
X014650Y057240
X015120Y058030
X015750Y056690
X015910Y055430
X015040Y054650
X014650Y052910
X014650Y052520
X014650Y052130
X014650Y051180
X014650Y050790
X014650Y050390
X014720Y049610
X015750Y050390
X015750Y050790
X015750Y051180
X015750Y051890
X015750Y052280
X015750Y052680
X016850Y051260
X017400Y051970
X018030Y051260
X018580Y051970
X019210Y051260
X019690Y051970
X020310Y051260
X020870Y051970
X022280Y051420
X022200Y050710
X021970Y050080
X020870Y050080
X020310Y049450
X019690Y050080
X019210Y049450
X018580Y050080
X018030Y049450
X017400Y050080
X016850Y049450
X015120Y047800
X015830Y046770
X015120Y045910
X015120Y045200
X014650Y044410
X014170Y043540
X012830Y043070
X012280Y043940
X012280Y044570
X012830Y044960
X013700Y045590
X012280Y046300
X012280Y046930
X013230Y048270
X012280Y050000
X012830Y051340
X010790Y052050
X010790Y050470
X008500Y051340
X008660Y053390
X009060Y055120
X008270Y055750
X008270Y056460
X008270Y057170
X008270Y057800
X008270Y058500
X008270Y059130
X009450Y059760
X009530Y058190
X009450Y056930
X010790Y056770
X010790Y055590
X010790Y054570
X012830Y053540
X012280Y059130
X012280Y059760
X010790Y058820
X008500Y061260
X006220Y059130
X006220Y058500
X006220Y057800
X006220Y057170
X006220Y056460
X006220Y055750
X005040Y055280
X004650Y055750
X004650Y056460
X004650Y057170
X004650Y057800
X004650Y058500
X004650Y059130
X004650Y054410
X008500Y048500
X009450Y046930
X008270Y046380
X008270Y045750
X008270Y045040
X008270Y044410
X008270Y043700
X008270Y042990
X009060Y042280
X008660Y040630
X008500Y038500
X010790Y039290
X010790Y037720
X012280Y037170
X012830Y038500
X014650Y038350
X014650Y037950
X014650Y037560
X014720Y036770
X015750Y038030
X015750Y039530
X014650Y039690
X014650Y040080
X014650Y039290
X012830Y040710
X010790Y041810
X010790Y042830
X010790Y044020
X009450Y044090
X009530Y045350
X010790Y046060
X006220Y046380
X006220Y045750
X006220Y045040
X006220Y044410
X006220Y043700
X006220Y042990
X005040Y042520
X004650Y042990
X004650Y043700
X004650Y044410
X004650Y045040
X004650Y045750
X004650Y046380
X004650Y041650
X008500Y035670
X009450Y034170
X008270Y033540
X008270Y032910
X008270Y032200
X008270Y031570
X008270Y030870
X008270Y030160
X009060Y029530
X008660Y027800
X008500Y025830
X010790Y026540
X010790Y024960
X012280Y024410
X012830Y025830
X014650Y025670
X014650Y025280
X014650Y024880
X014720Y024090
X015830Y025280
X015830Y026770
X014650Y026610
X014650Y027010
X014650Y027400
X015120Y029130
X015910Y029840
X015750Y031100
X014650Y031570
X015120Y032360
X015120Y033070
X015830Y033940
X015120Y034960
X013230Y035430
X012280Y034170
X012280Y033540
X012830Y032130
X012280Y031730
X012280Y031100
X012830Y030240
X014170Y030710
X013700Y032760
X010790Y033230
X009530Y032600
X009450Y031340
X010790Y031180
X010790Y030000
X010790Y028980
X012830Y027950
X013230Y022760
X012280Y021420
X012280Y020790
X010790Y020550
X008500Y022990
X006220Y020870
X006220Y020240
X006220Y019530
X006220Y018900
X006220Y018190
X006220Y017480
X005040Y017010
X004650Y017480
X004650Y018190
X004650Y018900
X004650Y019530
X004650Y020240
X004650Y020870
X004650Y016140
X015120Y022280
X015830Y021260
X018500Y023540
X020000Y023540
X020000Y022520
X022910Y021500
X023460Y021500
X024330Y019920
X025120Y019690
X026690Y020790
X027480Y020240
X029130Y019690
X030240Y017010
X029450Y016140
X027720Y015750
X027240Y015750
X026770Y015750
X026060Y015750
X025590Y015750
X025120Y015750
X024330Y015750
X025200Y016850
X025670Y016850
X026060Y016850
X026690Y016850
X027090Y016850
X027480Y016850
X028270Y013860
X026060Y013860
X024720Y013390
X025280Y011890
X026850Y011890
X026140Y009610
X028190Y009690
X029840Y010160
X030470Y009370
X031180Y009370
X031890Y009370
X032520Y009370
X033230Y009370
X033860Y009370
X034570Y010550
X033620Y011890
X032910Y010550
X031730Y010470
X031570Y011890
X030390Y011890
X029370Y011890
X030550Y013860
X031500Y013390
X032130Y013390
X032520Y013860
X033150Y014800
X033390Y016140
X032760Y016140
X031970Y015750
X031020Y015200
X031420Y016850
X034330Y016850
X035350Y016140
X037170Y015750
X037950Y015750
X038430Y015750
X038900Y015750
X039610Y015750
X040080Y015750
X040550Y015750
X040310Y016850
X039840Y016850
X039370Y016850
X038900Y016850
X038430Y016850
X037950Y016850
X038900Y013860
X037560Y013390
X038110Y011890
X039690Y011890
X038900Y009610
X041020Y009690
X042600Y010160
X043310Y009370
X044020Y009370
X044720Y009370
X045350Y009370
X046060Y009370
X046690Y009370
X047320Y010550
X046460Y011890
X046690Y013390
X047320Y013390
X048580Y014250
X050310Y013390
X051650Y013860
X051730Y015750
X051260Y015750
X050790Y015750
X050000Y015750
X050790Y016850
X051260Y016850
X051730Y016850
X052200Y016850
X052680Y016850
X053150Y016850
X052910Y015750
X052440Y015750
X053390Y015750
X055040Y016140
X055830Y016930
X057090Y016850
X057560Y015670
X058350Y016140
X059060Y016140
X059920Y016850
X060790Y016850
X060940Y016140
X061890Y015200
X061420Y014330
X060080Y013390
X059530Y013390
X058110Y013860
X057720Y013390
X057090Y013390
X056220Y013860
X056610Y015200
X058740Y014800
X059210Y011890
X058500Y010550
X057320Y010470
X057480Y009370
X058110Y009370
X058820Y009370
X059450Y009370
X060160Y010550
X061570Y009610
X064570Y009610
X066690Y009690
X068270Y010160
X068900Y009370
X069610Y009370
X070310Y009370
X070940Y009370
X071650Y009370
X072280Y009370
X072990Y010550
X072050Y011890
X071340Y010550
X070160Y010470
X070080Y011890
X068820Y011890
X067800Y011890
X066770Y013860
X066140Y015750
X065670Y015750
X065200Y015750
X064490Y015750
X064020Y015750
X063540Y015750
X062760Y015750
X063620Y016770
X064090Y016770
X064570Y016770
X065040Y016770
X065510Y016770
X065980Y016770
X067870Y016140
X068660Y016930
X069920Y016850
X070240Y017870
X070240Y018980
X070240Y019690
X070240Y020000
X069760Y020080
X070240Y020630
X071650Y020710
X071730Y019840
X072130Y019920
X072680Y020160
X073150Y020940
X073070Y021730
X073150Y022360
X073150Y022910
X072600Y023540
X071970Y023390
X071100Y022200
X071970Y021730
X074090Y022990
X073780Y023620
X074490Y023700
X075750Y024170
X076610Y024250
X077240Y024880
X077560Y025510
X076610Y025910
X076610Y026460
X074490Y026770
X074330Y026220
X073860Y026300
X073230Y028190
X073230Y028900
X074020Y029610
X074650Y029370
X075350Y028980
X076540Y029210
X077560Y029690
X078030Y029610
X079060Y029760
X079530Y029060
X081180Y029530
X081810Y030630
X081340Y031260
X080870Y032050
X081340Y033230
X082360Y033230
X082990Y032440
X083460Y032760
X083460Y031570
X082360Y031420
X082910Y029920
X082760Y029370
X084650Y029760
X085120Y029920
X085200Y031500
X085980Y031810
X085590Y032520
X085040Y032520
X085040Y034090
X086060Y034570
X086610Y034570
X087720Y035120
X087720Y035590
X087950Y036930
X088820Y036690
X089530Y036690
X089530Y037950
X088900Y037950
X088900Y038430
X089060Y039920
X088430Y040160
X087800Y040160
X087240Y041020
X086690Y040470
X084800Y040160
X084800Y039610
X084800Y037870
X084880Y036850
X085350Y036300
X085910Y036540
X085430Y035510
X084960Y035750
X083540Y036610
X082990Y036140
X082360Y036460
X082360Y035200
X081340Y035350
X080160Y036220
X079760Y035430
X078430Y035280
X077170Y035430
X076540Y036220
X077560Y036690
X078110Y037640
X077010Y037950
X076300Y038110
X075750Y038030
X075200Y037870
X075200Y038820
X074720Y039530
X074090Y039530
X073540Y040000
X072910Y039760
X072910Y040470
X073780Y040940
X073150Y041810
X072520Y041570
X071810Y041340
X071260Y040940
X071020Y041810
X071420Y042990
X072520Y043230
X073070Y043460
X072280Y043940
X071890Y045200
X071890Y045910
X072600Y046140
X071890Y047090
X071180Y047090
X070870Y047480
X069760Y047320
X070080Y048580
X069920Y049760
X069210Y049760
X070630Y049760
X071340Y049760
X071420Y048580
X072130Y048030
X073070Y048580
X073780Y048900
X073310Y049760
X074880Y048900
X075350Y048900
X076140Y049450
X076460Y048900
X077320Y048740
X078820Y049530
X079060Y048900
X079210Y048350
X079690Y047720
X078660Y047090
X078740Y045510
X079370Y045590
X080470Y045040
X081890Y045750
X082360Y044800
X082910Y045040
X083780Y045750
X084880Y046140
X085120Y045120
X085670Y045120
X086220Y045120
X086220Y044650
X086220Y043780
X086220Y043310
X086770Y043780
X087400Y043540
X088430Y043390
X088500Y042520
X089450Y042130
X089690Y042910
X089530Y043860
X090000Y044960
X090470Y045670
X090240Y046220
X090470Y046850
X089920Y046850
X089530Y045830
X088580Y046220
X088350Y046930
X087480Y046930
X086850Y046850
X086610Y046220
X086060Y046850
X084170Y047560
X083230Y047560
X081970Y048350
X081340Y048350
X080790Y048350
X077640Y045040
X076380Y044570
X076380Y044170
X075830Y045590
X076540Y045830
X075350Y047480
X074170Y047090
X070630Y046300
X070940Y044650
X068350Y045120
X068350Y045590
X068350Y046460
X068350Y047010
X068350Y047720
X066850Y047800
X066850Y048350
X066220Y047320
X066850Y046850
X066850Y046380
X066850Y045910
X066850Y045200
X066850Y044170
X066220Y044170
X065750Y044170
X065280Y044170
X064720Y044490
X063540Y044490
X063230Y045040
X061970Y044490
X061570Y045430
X062050Y047090
X061500Y047560
X060550Y047870
X060870Y049210
X060000Y049210
X061730Y050160
X062600Y050160
X062990Y050160
X062990Y049840
X064330Y050870
X066770Y051340
X067640Y051730
X067800Y050310
X069210Y052130
X069690Y052910
X068980Y053390
X069060Y054410
X069690Y054410
X070470Y053940
X072200Y054410
X072280Y056690
X071730Y056690
X071100Y057170
X071890Y057800
X073150Y057090
X074250Y056060
X074880Y056060
X075430Y056060
X076610Y056060
X077320Y057170
X076540Y058190
X076140Y058740
X075040Y058660
X075040Y059290
X073460Y058580
X072440Y060790
X072520Y061570
X071730Y061260
X071730Y062680
X072050Y063700
X072050Y064720
X071730Y065590
X071970Y066540
X073780Y066540
X074720Y066380
X075280Y066380
X075280Y066930
X075040Y067950
X075040Y068500
X075980Y068580
X076300Y069210
X076220Y069760
X075980Y070470
X076060Y071340
X076610Y071650
X076690Y072280
X077870Y072520
X078270Y072520
X078660Y072520
X078900Y073150
X079210Y073700
X079760Y073310
X080390Y072520
X081100Y072520
X081420Y071970
X081180Y071260
X079920Y071260
X079840Y069760
X080080Y069210
X081020Y069760
X081260Y069210
X081730Y068580
X082280Y069210
X082360Y069760
X084250Y069920
X084720Y070710
X085350Y071020
X085830Y070160
X086140Y069130
X088030Y070310
X088580Y070310
X088030Y071100
X088580Y071420
X088030Y071970
X087640Y073150
X087950Y073620
X087170Y074020
X086690Y074170
X086380Y073620
X086060Y073070
X085750Y074490
X084410Y074650
X084800Y075590
X084020Y076300
X084330Y077090
X084330Y077640
X084330Y078190
X084720Y078900
X084330Y079530
X084330Y080080
X084330Y080630
X084330Y081180
X084330Y081730
X084330Y082280
X084330Y082830
X084330Y083390
X084720Y084020
X085590Y084020
X086220Y083390
X086220Y082830
X086220Y082280
X086220Y081730
X086220Y081180
X086220Y080630
X086220Y080080
X086220Y079530
X086770Y078900
X087320Y079530
X087320Y080080
X087320Y080630
X087320Y081180
X087320Y081730
X087320Y082280
X087320Y082830
X087320Y083390
X086770Y084090
X086220Y085200
X086220Y085750
X088980Y084090
X089530Y084650
X089530Y085200
X089530Y086300
X089530Y086850
X089530Y087400
X089530Y087950
X089530Y088500
X090630Y088500
X090630Y087950
X090630Y087400
X090630Y086850
X090630Y086300
X090630Y085200
X090630Y084650
X090080Y084090
X089530Y083390
X089530Y082830
X089530Y082280
X089530Y081730
X089530Y081180
X089530Y080630
X089530Y080080
X089530Y079530
X090080Y078900
X090630Y079530
X090630Y080080
X090630Y080630
X090630Y081180
X090630Y081730
X090630Y082280
X090630Y082830
X090630Y083390
X091180Y084090
X091730Y084650
X091730Y085200
X091730Y086300
X091730Y086850
X091730Y087400
X091730Y087950
X091730Y088500
X091180Y089210
X092830Y087400
X092830Y086300
X092830Y085750
X092830Y084650
X092280Y084090
X091730Y083390
X091730Y082830
X091730Y082280
X091730Y081730
X091730Y081180
X091730Y080630
X091730Y080080
X091730Y079530
X092280Y078900
X092830Y079530
X092830Y080080
X093940Y079530
X094490Y078900
X095040Y079530
X095590Y078900
X095910Y079530
X095910Y080080
X095910Y080630
X095910Y081180
X095910Y081730
X095910Y082280
X095910Y082830
X095910Y083390
X095590Y084090
X095910Y084650
X095910Y085200
X095910Y085750
X095910Y086300
X095910Y086850
X095910Y087400
X096540Y086610
X097320Y086140
X096540Y085590
X097320Y084880
X097240Y084090
X096540Y084170
X097240Y083230
X097870Y083230
X098580Y083540
X099610Y083780
X100240Y083390
X100390Y082050
X099610Y082130
X098430Y081970
X097320Y082050
X096540Y082520
X096540Y081420
X097240Y080790
X096540Y080240
X097240Y079690
X096540Y078980
X095910Y078190
X095910Y077640
X095910Y077090
X095910Y076540
X096540Y077400
X097240Y076770
X097870Y076770
X098660Y077170
X098350Y075980
X100080Y077170
X100240Y078270
X100790Y078270
X101340Y078740
X101890Y078900
X101890Y079290
X101890Y078500
X101260Y077240
X101260Y076690
X102440Y077090
X102830Y076220
X103540Y076220
X104170Y076220
X104800Y076220
X105430Y076220
X106690Y077870
X107320Y077560
X108350Y077720
X109450Y078660
X109370Y079450
X110470Y081020
X110470Y081810
X110470Y082680
X109370Y083620
X108820Y083620
X108660Y084250
X108270Y083070
X108270Y082200
X108270Y081340
X107320Y081890
X106690Y081650
X105980Y080790
X105350Y080390
X106690Y078980
X107320Y079530
X105980Y082910
X106690Y084020
X107320Y083700
X105980Y084960
X105980Y086610
X106690Y087320
X107320Y087560
X107320Y088580
X106690Y088900
X105980Y089840
X105980Y090390
X105980Y090940
X106690Y091730
X107320Y091810
X106610Y092990
X106610Y093780
X107240Y094090
X107800Y094330
X107240Y094880
X108270Y095430
X109370Y095200
X109920Y095120
X109450Y096140
X111260Y096460
X111890Y097320
X112440Y096540
X112440Y095350
X111810Y095040
X112440Y093940
X113070Y094490
X113780Y093460
X113070Y093150
X112440Y092130
X113070Y091260
X113780Y090000
X113070Y089210
X111340Y089130
X111340Y090550
X110790Y091570
X110390Y092990
X109920Y088660
X108980Y088660
X108270Y088270
X108350Y087400
X108820Y086540
X108660Y085910
X109760Y087010
X111420Y085670
X111970Y085670
X111970Y084800
X110940Y084170
X110470Y084170
X113070Y083940
X113780Y082990
X113070Y082600
X112440Y081810
X113070Y081100
X112440Y080240
X112440Y079060
X112440Y078270
X112440Y077170
X112440Y075980
X112440Y074170
X113070Y073780
X113780Y074720
X114410Y073390
X114960Y073700
X115590Y072520
X116140Y072520
X116140Y071890
X115750Y071890
X115350Y071890
X114960Y071890
X114570Y071890
X113940Y071890
X114490Y070310
X114800Y070310
X115910Y069840
X115910Y069450
X115910Y069060
X115510Y069060
X115120Y069060
X115590Y068430
X115980Y067870
X115980Y066930
X115430Y066140
X114410Y066690
X112830Y067240
X111890Y067480
X111180Y068030
X110870Y069210
X109290Y069690
X107950Y070310
X107320Y069760
X107320Y069130
X107320Y068500
X108740Y068030
X109690Y065910
X110240Y063460
X109290Y062760
X109690Y062050
X110240Y060550
X111180Y060240
X111180Y059370
X110240Y059130
X109690Y058190
X108190Y058500
X108190Y058980
X106690Y058500
X106850Y060160
X106850Y060630
X106300Y061180
X104570Y061180
X104410Y062130
X104410Y062760
X104410Y063310
X104410Y063620
X104800Y063620
X104800Y064410
X104800Y065280
X104800Y066140
X103620Y066930
X102910Y067950
X103150Y068430
X104090Y068820
X104960Y068030
X103860Y070160
X102990Y069530
X102600Y070710
X101420Y069530
X101260Y068430
X101020Y067950
X101730Y066930
X102360Y065980
X101500Y065590
X101020Y064960
X100550Y064170
X101500Y063940
X102440Y064170
X102910Y064960
X103390Y065590
X103390Y063940
X102910Y062990
X101020Y062990
X099610Y063940
X098660Y064170
X099130Y064960
X099610Y065590
X100470Y065980
X099840Y066930
X099130Y067950
X099370Y068430
X099610Y069530
X098900Y070160
X097800Y070080
X097320Y071500
X097170Y072680
X097560Y072680
X098740Y071570
X099530Y072680
X100630Y071100
X101420Y072280
X103390Y072280
X104800Y071650
X105670Y071970
X106460Y071970
X107170Y071970
X107800Y072200
X108270Y071570
X109290Y071890
X109920Y071890
X110550Y071890
X111420Y071890
X111970Y071890
X111020Y072760
X112910Y069690
X112680Y069060
X112830Y068580
X113940Y068430
X113940Y069060
X116300Y069840
X116610Y069840
X117320Y068900
X117800Y069130
X118900Y068740
X119530Y068740
X120310Y068740
X120870Y067800
X122130Y066770
X122830Y067480
X122130Y069370
X122360Y071340
X122050Y072050
X121570Y072050
X120940Y071890
X120390Y071890
X119760Y071890
X119060Y071890
X118030Y071890
X117480Y071890
X117010Y072520
X116540Y071890
X116540Y073230
X116540Y075040
X117090Y076220
X117560Y076220
X115980Y076770
X117170Y078190
X116610Y078740
X115510Y080390
X114330Y080390
X114960Y081570
X114960Y084250
X116930Y083940
X118430Y084250
X119130Y084250
X119610Y084720
X119450Y085200
X120160Y086060
X120390Y087240
X120940Y087240
X121650Y086610
X122130Y085910
X122130Y084490
X121650Y083700
X122130Y083230
X122130Y081890
X122130Y081020
X122830Y080790
X122830Y080240
X122130Y080160
X122130Y079210
X122830Y079370
X122830Y078740
X122130Y078350
X122830Y077870
X122830Y077240
X122130Y077400
X122130Y076540
X120470Y077320
X120470Y077800
X120390Y080310
X120390Y080790
X121100Y080870
X120310Y081730
X119690Y082050
X120240Y083390
X118030Y081970
X118110Y085200
X118740Y087870
X119130Y087870
X118030Y089760
X117640Y089760
X117640Y090390
X117640Y091020
X117640Y092050
X116930Y092680
X116380Y092760
X115670Y093230
X114960Y092990
X114960Y093860
X116060Y094020
X116060Y094410
X116060Y094800
X116060Y095510
X116460Y093940
X116850Y093940
X117240Y093940
X117560Y093940
X117950Y093940
X118350Y093940
X118660Y093940
X118660Y094570
X118660Y095200
X118660Y095430
X119290Y095430
X119840Y095430
X119840Y095120
X119840Y094490
X119840Y094090
X119840Y093460
X119840Y093150
X119840Y092760
X119840Y092280
X119210Y092360
X119210Y092050
X119840Y091500
X119840Y090790
X119840Y090080
X121810Y090630
X121890Y089760
X122760Y089370
X120550Y092280
X120550Y092760
X120550Y093230
X120550Y093540
X120550Y094090
X120550Y094570
X120550Y094960
X120550Y095430
X120550Y095910
X120470Y096220
X120000Y096220
X119530Y096220
X119210Y096220
X120550Y097010
X121570Y097010
X123070Y097950
X118270Y093070
X116060Y091340
X115510Y092130
X114960Y091340
X115510Y090470
X116540Y089760
X114960Y088740
X114960Y087560
X114960Y087090
X114960Y086540
X116460Y087640
X112440Y087170
X112440Y086850
X113700Y078820
X114330Y078500
X113700Y077640
X107560Y075430
X107240Y073860
X106610Y074020
X105670Y073070
X104880Y073620
X104170Y074170
X103460Y074570
X102760Y075040
X100870Y079610
X100160Y079610
X099130Y079530
X098430Y079530
X098430Y080710
X099130Y080710
X101420Y081500
X101890Y080710
X101890Y080390
X101890Y080080
X101890Y083310
X101890Y083780
X101890Y084250
X101890Y084720
X101340Y084960
X100790Y086140
X101890Y086850
X101890Y087320
X103460Y085280
X099130Y084960
X098430Y084960
X098430Y086140
X099130Y086140
X095040Y085750
X093940Y085750
X093940Y086300
X093940Y087400
X095040Y087950
X095040Y084650
X094490Y084090
X093940Y084650
X093390Y084090
X092830Y082830
X092830Y082280
X092830Y081730
X093940Y081730
X093940Y082280
X093940Y082830
X095040Y082830
X093390Y078900
X092830Y078190
X091730Y078190
X091730Y077640
X090630Y077640
X090630Y078190
X091180Y078900
X089530Y078190
X088980Y078900
X088430Y079530
X088430Y080080
X088430Y080630
X088430Y081180
X088430Y081730
X088430Y082280
X088430Y082830
X088430Y083390
X087870Y078900
X087320Y078190
X087320Y077640
X087320Y077090
X087320Y076540
X086220Y076540
X086220Y077090
X086220Y077640
X086220Y078190
X088430Y078190
X088430Y077640
X088430Y077090
X088430Y076540
X089840Y072050
X089920Y071570
X089920Y070940
X089920Y070240
X091260Y069840
X092130Y070310
X092130Y071020
X092130Y071500
X092360Y072440
X091730Y072440
X093540Y072680
X093940Y072680
X095350Y072680
X095750Y072680
X095750Y071100
X095350Y071100
X095980Y070080
X095590Y068430
X095350Y067950
X096060Y066930
X096770Y065980
X097720Y065590
X097240Y064960
X096690Y064170
X095830Y063940
X094880Y064170
X095350Y064960
X095830Y065590
X094880Y065980
X093940Y065590
X093460Y064960
X092990Y064170
X093940Y063940
X093460Y062990
X092050Y063940
X091100Y064170
X091570Y064960
X092050Y065590
X091100Y065980
X090160Y065590
X089690Y064960
X089210Y064170
X090160Y063940
X089760Y062990
X088500Y062440
X087870Y063620
X087800Y064170
X087480Y064720
X087170Y065200
X086930Y065750
X086060Y065670
X084090Y066220
X083070Y066220
X083230Y067240
X084250Y067240
X081970Y067010
X081420Y067320
X080550Y067640
X079690Y067640
X079690Y068190
X078350Y067720
X077480Y068110
X077010Y068110
X076380Y066220
X075590Y065830
X076460Y065120
X076850Y064090
X075830Y064090
X075830Y063540
X074960Y062600
X073940Y062600
X073460Y062600
X073540Y064410
X074410Y064960
X077090Y063070
X077950Y062520
X078270Y064490
X079370Y065200
X079920Y064570
X080390Y065200
X080710Y064490
X081420Y064880
X081340Y065670
X081570Y066220
X080160Y066220
X079760Y066220
X079450Y066220
X077950Y065830
X077640Y065830
X078500Y070470
X078270Y071970
X077950Y073310
X077320Y074090
X077320Y075200
X077320Y076460
X076060Y076300
X075910Y075750
X075910Y074570
X075910Y073700
X075350Y072600
X074960Y071970
X073460Y071650
X073070Y072280
X072050Y071810
X072050Y072830
X071020Y072910
X070870Y073780
X071020Y074570
X072050Y074250
X072680Y074800
X073070Y074250
X072050Y075510
X073070Y075980
X073460Y077010
X074250Y078030
X074800Y078500
X075350Y079060
X075350Y079450
X075910Y079290
X076540Y078660
X077170Y078350
X076540Y077560
X077170Y079610
X077800Y079840
X077400Y080390
X076770Y081100
X075750Y081730
X076380Y082440
X076930Y082360
X077870Y083310
X078350Y081890
X078430Y080310
X079530Y080310
X080160Y079210
X080790Y079210
X081810Y079210
X081500Y080310
X080790Y080790
X080790Y082280
X079690Y083070
X078350Y085750
X078980Y088270
X079760Y088270
X080710Y088900
X081340Y089690
X080710Y090390
X079760Y091180
X078980Y091180
X078430Y089690
X075980Y089450
X073620Y088580
X073070Y087950
X072360Y088110
X071890Y087870
X071890Y088740
X071890Y089370
X072360Y090240
X071890Y091260
X073070Y091890
X073620Y091650
X072360Y087010
X072910Y086690
X070390Y085830
X068980Y084800
X068030Y080870
X068820Y080390
X069370Y079610
X070390Y079290
X071500Y080000
X072360Y079840
X073620Y080310
X074490Y081180
X073310Y082360
X070390Y080710
X070080Y077950
X071020Y077800
X071100Y076460
X070470Y076460
X068900Y077560
X066380Y081570
X065750Y081570
X063230Y081260
X059840Y081810
X060160Y084090
X060160Y084650
X059610Y084170
X059690Y085350
X060160Y088820
X056460Y088980
X055350Y088820
X054720Y088030
X054720Y086850
X053540Y087010
X052990Y087480
X052280Y087400
X052280Y088500
X053540Y089370
X053540Y089840
X053540Y090390
X052990Y090940
X051730Y091020
X052130Y092050
X050940Y092440
X050790Y091730
X051340Y093390
X047480Y093230
X047480Y093860
X045280Y091730
X044650Y092280
X044330Y092830
X044020Y093460
X044020Y094250
X044410Y095280
X043780Y095430
X044570Y095980
X045040Y096540
X045830Y097090
X045750Y098030
X046690Y098030
X047010Y097090
X044650Y098030
X042360Y097240
X042130Y098030
X041100Y098030
X040080Y098030
X040160Y096540
X040310Y095980
X039130Y095430
X039130Y094650
X039130Y093620
X039530Y092910
X040080Y093070
X040470Y093700
X040240Y094490
X041730Y094020
X042280Y093540
X041970Y092910
X041890Y091970
X040940Y091890
X040310Y091890
X040940Y092600
X042360Y091020
X043230Y090390
X044330Y090310
X044330Y090870
X045670Y089760
X045120Y089060
X042440Y089210
X041020Y089760
X040550Y089130
X039610Y090310
X039610Y090940
X037480Y090710
X036690Y089690
X037240Y089060
X037170Y086220
X037170Y085040
X037800Y085040
X038430Y085040
X039530Y083070
X041100Y076460
X039610Y075350
X038030Y075350
X036460Y072280
X034960Y071260
X033390Y071260
X031890Y072280
X030390Y073390
X028740Y071260
X033390Y069210
X033940Y064880
X034490Y064880
X035280Y063860
X035750Y063150
X034570Y062600
X033860Y062600
X032600Y063150
X033150Y063860
X031890Y061810
X030870Y060710
X030240Y060870
X030790Y059760
X028980Y060870
X028270Y060710
X028350Y059760
X026220Y059760
X026300Y060710
X025590Y060870
X024330Y060870
X023700Y060710
X023780Y059760
X021650Y059760
X021650Y060710
X021020Y060870
X019760Y060870
X019060Y060710
X019130Y059760
X020470Y058030
X021970Y056140
X021340Y053460
X023860Y052440
X024490Y051970
X023860Y050470
X023070Y050870
X023310Y049450
X022990Y048980
X022050Y048500
X022130Y047320
X021890Y046690
X021890Y045910
X021020Y045430
X021020Y044880
X020940Y043390
X020940Y042520
X020310Y042600
X020790Y041890
X021260Y041340
X021340Y040240
X021970Y040240
X022830Y040870
X022680Y041340
X022200Y041970
X023700Y042050
X024650Y041340
X024090Y040870
X023390Y040310
X024880Y040310
X026060Y040080
X026770Y041420
X025430Y041500
X025670Y043460
X026140Y043460
X025910Y044410
X025280Y044410
X026220Y044960
X027560Y044960
X027720Y044020
X029130Y046460
X029290Y046930
X030310Y045980
X031420Y046460
X031650Y047400
X030630Y047950
X029610Y048500
X028660Y048980
X028350Y048030
X027480Y047400
X026220Y047950
X027090Y049450
X027170Y050470
X027560Y051020
X028430Y051420
X029370Y049920
X030470Y049450
X031100Y050470
X032200Y050000
X033150Y050470
X032830Y051020
X032680Y052440
X034960Y051970
X035510Y051970
X035980Y051420
X033070Y055350
X031890Y056140
X030710Y054880
X029760Y054410
X029920Y052990
X027170Y052990
X026220Y054020
X025350Y056140
X027320Y056140
X027240Y061810
X026540Y063150
X026060Y063860
X025280Y064880
X024720Y064880
X023940Y063860
X023460Y063150
X024570Y062600
X025350Y062600
X022680Y061810
X018030Y061810
X017240Y058030
X014090Y061180
X013390Y061420
X011500Y071890
X011500Y072830
X010000Y072910
X010000Y073780
X010000Y074650
X010750Y074410
X010750Y075350
X010000Y075510
X008190Y075200
X007560Y075590
X008190Y076060
X007560Y076460
X007800Y077090
X007800Y077800
X007560Y078350
X008190Y078740
X007560Y079210
X008190Y079610
X007560Y080160
X008190Y080550
X007560Y081020
X008190Y081420
X007560Y081890
X008190Y082280
X007870Y082910
X007870Y084330
X008190Y084880
X007560Y085200
X008190Y085750
X007560Y086060
X008190Y086610
X007560Y087010
X008190Y087480
X007560Y087800
X007560Y088660
X008190Y088430
X008500Y089290
X007800Y089290
X007800Y090080
X007560Y090630
X008190Y091020
X007560Y091570
X008190Y091890
X007560Y092440
X008190Y092760
X007560Y093310
X008190Y093620
X007560Y094170
X008190Y094490
X007870Y095120
X007870Y096610
X008190Y097170
X007560Y097480
X008190Y098030
X007560Y098350
X008190Y098900
X007560Y099290
X007560Y100080
X008190Y099840
X008190Y100710
X007560Y101020
X007800Y101650
X008430Y101650
X008430Y102360
X007800Y102360
X007560Y102910
X008190Y103310
X007560Y103780
X008190Y104170
X007560Y104650
X008190Y105040
X007560Y105590
X008190Y105910
X007560Y106460
X008190Y106770
X007800Y107400
X010000Y106460
X010000Y105670
X010000Y104720
X010710Y104960
X010710Y104020
X010000Y103860
X011500Y102680
X011500Y102130
X011500Y101730
X011500Y101260
X012050Y100240
X010710Y099920
X010000Y100080
X010000Y099210
X010710Y098980
X010000Y098350
X010000Y097480
X011500Y097400
X011500Y096460
X011500Y095200
X011500Y094250
X010000Y094250
X010000Y093390
X010000Y092520
X010790Y092680
X010790Y091810
X010000Y091570
X011500Y090470
X011500Y089920
X011500Y089530
X011500Y088980
X012050Y087950
X010710Y087560
X010000Y087800
X010000Y086850
X010710Y086690
X010000Y086060
X010000Y085120
X011500Y085120
X011500Y084170
X011500Y082990
X011500Y082050
X010000Y081970
X010000Y081100
X010000Y080240
X010750Y080390
X010750Y079530
X010000Y079370
X011500Y078110
X011500Y077640
X011500Y077240
X011500Y076690
X012050Y075670
X013070Y074250
X008190Y074330
X007560Y074720
X007560Y073780
X008190Y073460
X007560Y072910
X008190Y072600
X007870Y072050
X008500Y077090
X008500Y077800
X012050Y079210
X013460Y080870
X016460Y083070
X016060Y084170
X016060Y085040
X016690Y085040
X017400Y085040
X017400Y086220
X016380Y086770
X015750Y086220
X013940Y086460
X012050Y091500
X013940Y093310
X016690Y094720
X019610Y095670
X019610Y096380
X019130Y098030
X018110Y098030
X017090Y098030
X015430Y098500
X015200Y100390
X015910Y101180
X015910Y101890
X016610Y101650
X017320Y101180
X018820Y101180
X019530Y101650
X020240Y101180
X020550Y101180
X021260Y101650
X021890Y101180
X022050Y103940
X016850Y104650
X016220Y103940
X013780Y103460
X014020Y105200
X013070Y105200
X012050Y103780
X013460Y097870
X008500Y090080
X020390Y086220
X021020Y086770
X021340Y087560
X021180Y088430
X022050Y086220
X021970Y085040
X021340Y085040
X027010Y087480
X027560Y087480
X027480Y088430
X028500Y089290
X028980Y090000
X028980Y090790
X029760Y091810
X030080Y092360
X030390Y093150
X031020Y094570
X032130Y093860
X032910Y093700
X033150Y092600
X033070Y091810
X033620Y091500
X033780Y090940
X034170Y092280
X034170Y093070
X034960Y093070
X035670Y092910
X035510Y091890
X034960Y091890
X033700Y089290
X033860Y088580
X032200Y089840
X031730Y089210
X030310Y089210
X030390Y090240
X030940Y091570
X031730Y091650
X032050Y092600
X034330Y095120
X034330Y095750
X035510Y098030
X036460Y098030
X037560Y098030
X037090Y095430
X041500Y095430
X042600Y095120
X042600Y094490
X039690Y103940
X041420Y104650
X046380Y103940
X050080Y103540
X057560Y103150
X052360Y086220
X052990Y085830
X053540Y085430
X055280Y085510
X055830Y085510
X055280Y084960
X060710Y076610
X062680Y075430
X063780Y077480
X061020Y073070
X063780Y070390
X064410Y069920
X065590Y068740
X065040Y068110
X064410Y067400
X063780Y067320
X063780Y068350
X062280Y068270
X059920Y066540
X057090Y069920
X055510Y071020
X054650Y071020
X054090Y070550
X054650Y069450
X050310Y072280
X048820Y071260
X047240Y071260
X045670Y072280
X044170Y071260
X042600Y071260
X041100Y072280
X038030Y071260
X042600Y069210
X045670Y068190
X047240Y069210
X048820Y067090
X048270Y064880
X047720Y064880
X045670Y061810
X044650Y060710
X044020Y060870
X042760Y060870
X042130Y060710
X042200Y059760
X042830Y058660
X043940Y058660
X044650Y059760
X043780Y062600
X042990Y062600
X041810Y063150
X042360Y063860
X041100Y061810
X040080Y060710
X039450Y060870
X040000Y059760
X039370Y058660
X038270Y058660
X037560Y059760
X037480Y060710
X038190Y060870
X036460Y061810
X035510Y060710
X034880Y060870
X035430Y059760
X034720Y058660
X032990Y059760
X032910Y060710
X033540Y060870
X034250Y056140
X041260Y053940
X047560Y056140
X053780Y057010
X056220Y053390
X057870Y052990
X056930Y051500
X056850Y050870
X056770Y049530
X056140Y049450
X055750Y050000
X053620Y047950
X051970Y043860
X051100Y040470
X049370Y040310
X049530Y039610
X049760Y038740
X049690Y038270
X049130Y038580
X050310Y038660
X050160Y037560
X049210Y037240
X048350Y037640
X048350Y040470
X047480Y040470
X048030Y041500
X048820Y041500
X051570Y038740
X051260Y037240
X052280Y037170
X053310Y037640
X054250Y037240
X054960Y036540
X055350Y037010
X054960Y038190
X054570Y039530
X054570Y040470
X055670Y039920
X055910Y041020
X056610Y041020
X056850Y042050
X058190Y041970
X058900Y041020
X058820Y040080
X058270Y039610
X057720Y038500
X056690Y038500
X057240Y036300
X058270Y036690
X059060Y037010
X060000Y037320
X060550Y037950
X061570Y038350
X061650Y037480
X061810Y037010
X062200Y037010
X061420Y036540
X060310Y036540
X060240Y035980
X060000Y035510
X059210Y034410
X059060Y033230
X059450Y032600
X060390Y032360
X061650Y031810
X061890Y032760
X062520Y032360
X063310Y031340
X063540Y030710
X064410Y031890
X064330Y032680
X064880Y032830
X065430Y033310
X066300Y034720
X066690Y035120
X067240Y034880
X067720Y035750
X068740Y035670
X068270Y034800
X069130Y034490
X069130Y033700
X069130Y033150
X069530Y032680
X070160Y032520
X070160Y031500
X069610Y031340
X068980Y032050
X067640Y032360
X067320Y032360
X067640Y032990
X067720Y033780
X067400Y031650
X067400Y031180
X066930Y031020
X066540Y030240
X065980Y029920
X066060Y029370
X065590Y029130
X065120Y029130
X064570Y029130
X064090Y029130
X063070Y028820
X063780Y027720
X063940Y027240
X063460Y026140
X063230Y025670
X063230Y024650
X063780Y024410
X063540Y023540
X062990Y023390
X062910Y022830
X062910Y022200
X062910Y021570
X064090Y021650
X064020Y021020
X064650Y020550
X065910Y020080
X066380Y020080
X066770Y020080
X067320Y018820
X068740Y018820
X068900Y020080
X067870Y021260
X066540Y021810
X066770Y022680
X066690Y023310
X065980Y022910
X065350Y022680
X064090Y022830
X065670Y024410
X066380Y024570
X067240Y024250
X067240Y024960
X066460Y026300
X065750Y026540
X067950Y028190
X067950Y028740
X067320Y029060
X067870Y030160
X068820Y028820
X069840Y029690
X071650Y030080
X071650Y030390
X072200Y030240
X071650Y028900
X071650Y028580
X071650Y028270
X072200Y028580
X071650Y027560
X070870Y025040
X069920Y025200
X074330Y020870
X075670Y020390
X076220Y020390
X076140Y019530
X076690Y019370
X076060Y018900
X075040Y019290
X074490Y019450
X073940Y019450
X071730Y018980
X071730Y017800
X072760Y016850
X071890Y016140
X071180Y016140
X070390Y015670
X069530Y015200
X069060Y013860
X069920Y013390
X070550Y013390
X070940Y013940
X071500Y014800
X072280Y013390
X072910Y013390
X074250Y014250
X075280Y014570
X075590Y013940
X075350Y013390
X076610Y011890
X077090Y011890
X078430Y013390
X078900Y013390
X078110Y014650
X077560Y014650
X077240Y015750
X076540Y015750
X076060Y015750
X075980Y016770
X076540Y016770
X076770Y017240
X076770Y017720
X075830Y017720
X075120Y017170
X075120Y016850
X073780Y016140
X077240Y016770
X078030Y016770
X078820Y016770
X079610Y016770
X079610Y015750
X078820Y015750
X078030Y015750
X078030Y017640
X077800Y018190
X077560Y019210
X077400Y020310
X076930Y021020
X077950Y021730
X077800Y022760
X077170Y022680
X076300Y022760
X075670Y022680
X075430Y022200
X077640Y024250
X078500Y023780
X079760Y023310
X079450Y022680
X079060Y022130
X080790Y022990
X081730Y023860
X082360Y024330
X082130Y024880
X081570Y024880
X080550Y024800
X080390Y025510
X080390Y025980
X080390Y026460
X081020Y026380
X079290Y025980
X078820Y025590
X078820Y026380
X079530Y024960
X082910Y025350
X083460Y024490
X083310Y023230
X084020Y022990
X084020Y022520
X083070Y021570
X082680Y022130
X082520Y022990
X080790Y021100
X080470Y020630
X081100Y020000
X080470Y019450
X079690Y019450
X079370Y020000
X081420Y018740
X082680Y019210
X084090Y019370
X085120Y019290
X085280Y020160
X084330Y020710
X085670Y021650
X086610Y021260
X087090Y020710
X086850Y020160
X086540Y019530
X087640Y019690
X088430Y021340
X089450Y020790
X089760Y020240
X089760Y019690
X090390Y019690
X090940Y019690
X092130Y019690
X092280Y020240
X092520Y020790
X092910Y021810
X092680Y022600
X092050Y022600
X090550Y023070
X090000Y024490
X088500Y023150
X086300Y024020
X085750Y023070
X085280Y025040
X086300Y025510
X087320Y026380
X087320Y027010
X086770Y027010
X087240Y027950
X087800Y027800
X087950Y027010
X088500Y027010
X088190Y026380
X089060Y027800
X089690Y027800
X090240Y027800
X090870Y027800
X091420Y027800
X092050Y027800
X092680Y027800
X093230Y027800
X093860Y027800
X094330Y027800
X094800Y027170
X095510Y027170
X096220Y027170
X097170Y026460
X098500Y025980
X099210Y025980
X099760Y025910
X100790Y025980
X101570Y025980
X102280Y026380
X102280Y027170
X103070Y027170
X103860Y027170
X104020Y027640
X103540Y028190
X103540Y028900
X102990Y029530
X102990Y030710
X102990Y031890
X102280Y032520
X101650Y031890
X101650Y031340
X101650Y030710
X101650Y030080
X100550Y030080
X100550Y029530
X100550Y028900
X101650Y028900
X101650Y028350
X100940Y027170
X099840Y027170
X098660Y027170
X098350Y028350
X098350Y028900
X098350Y029530
X098350Y030080
X098350Y030710
X098350Y031340
X098350Y031890
X098900Y032520
X099450Y033150
X099450Y033780
X099450Y034330
X100550Y034330
X100550Y033780
X100550Y033150
X100000Y032520
X100550Y031890
X100550Y031340
X099450Y031340
X099450Y030710
X099450Y029530
X099450Y028900
X096140Y028900
X096140Y028350
X096140Y029530
X096140Y030080
X096140Y030710
X096140Y031340
X096140Y031890
X096610Y032520
X096140Y033150
X096140Y033780
X096140Y034330
X096140Y034960
X096140Y035510
X096140Y036140
X096140Y036770
X096140Y037320
X096300Y038030
X096930Y038030
X097560Y038030
X097170Y038740
X096060Y038740
X095590Y038030
X094960Y038030
X094250Y038030
X093540Y038030
X093860Y038740
X093860Y039290
X093860Y039920
X093860Y040470
X093860Y041100
X093860Y041730
X093860Y042830
X093860Y043460
X093310Y044090
X093860Y044720
X093860Y045280
X093860Y045910
X093860Y046540
X093860Y047090
X094960Y047090
X094960Y046540
X094960Y045910
X094960Y045280
X094960Y044720
X094410Y044090
X094960Y043460
X094960Y042830
X094960Y042280
X094960Y041100
X096060Y041100
X096060Y041730
X096060Y042830
X097170Y042830
X097170Y042280
X097170Y041730
X098270Y042280
X099370Y042280
X099370Y042830
X100470Y042830
X100470Y042280
X101650Y042280
X101650Y042830
X101650Y043460
X101020Y044090
X100470Y044720
X099920Y044090
X098820Y044090
X098270Y044720
X098270Y045280
X098270Y045910
X098270Y047090
X097170Y047090
X097170Y046540
X096060Y046540
X096060Y047090
X096060Y045910
X096060Y045280
X096060Y044720
X095510Y044090
X096610Y044090
X097170Y044720
X097170Y045280
X097720Y044090
X099370Y046540
X100470Y046540
X100470Y047090
X101650Y047090
X101650Y046540
X101650Y045910
X101650Y045280
X101650Y044720
X103620Y045830
X103620Y046380
X104250Y046300
X104250Y047170
X103460Y047090
X102760Y048110
X102200Y048110
X101970Y048740
X102990Y048660
X105430Y049290
X106690Y050870
X107090Y051810
X106540Y052520
X106220Y053070
X104800Y053070
X104090Y054090
X104800Y054490
X105670Y054490
X104410Y055430
X104410Y056060
X103390Y055430
X102600Y055830
X102830Y056850
X104410Y057320
X104960Y058500
X104960Y059060
X104960Y059610
X103310Y060080
X102830Y060080
X101420Y060080
X100940Y060080
X099530Y060080
X099060Y060080
X097640Y060080
X097170Y060080
X095750Y060080
X095280Y060080
X093860Y060080
X093390Y060080
X091970Y060080
X091500Y060080
X090080Y060080
X089610Y060080
X088500Y059610
X088500Y058900
X088500Y058430
X088500Y057950
X088500Y057320
X089610Y056850
X089370Y055830
X088500Y055830
X087320Y056690
X086770Y056690
X086140Y056690
X085670Y056690
X085750Y057720
X086060Y058350
X086060Y058820
X086460Y057720
X084250Y057320
X083460Y057320
X082990Y058350
X082680Y058900
X084020Y058900
X084250Y058350
X084720Y060000
X084800Y060630
X085750Y060390
X086540Y061570
X086540Y062280
X088500Y060710
X091570Y062990
X092990Y065980
X092360Y066930
X091570Y067950
X091810Y068430
X093460Y067950
X093700Y068430
X094170Y069920
X093860Y070550
X094250Y066930
X097240Y067950
X097480Y068430
X097950Y066930
X098660Y065980
X097720Y063940
X097240Y062990
X095350Y062990
X099130Y062990
X099060Y056850
X098820Y055830
X099610Y055430
X100710Y055830
X101500Y055430
X100940Y056850
X097720Y055430
X096930Y055830
X097170Y056850
X095280Y056850
X095040Y055830
X095830Y055430
X093940Y055430
X093150Y055830
X093390Y056850
X091500Y056850
X091260Y055830
X092050Y055430
X090160Y055430
X089840Y051890
X091730Y050790
X092050Y048740
X091970Y048030
X092050Y046690
X092680Y046540
X092680Y045910
X092680Y045430
X092680Y044880
X092200Y044570
X092130Y043540
X092680Y043310
X092760Y042280
X092760Y041730
X092680Y041100
X092760Y040470
X092680Y039920
X092680Y039290
X092760Y038820
X092680Y037720
X092050Y037800
X092600Y036850
X093230Y037090
X093940Y037090
X094250Y035980
X095040Y036380
X095040Y035280
X094250Y034880
X093150Y034800
X093540Y033620
X094250Y033700
X095040Y034090
X095040Y032990
X094250Y032600
X093620Y032680
X092990Y032520
X091890Y032600
X092130Y033700
X091340Y033700
X090710Y033620
X089760Y033230
X088740Y033070
X087800Y031890
X087170Y032440
X089760Y031340
X089920Y030160
X089450Y029060
X088740Y028580
X088270Y028980
X087800Y029370
X087170Y028980
X085510Y028350
X085510Y027170
X084490Y026610
X080310Y030710
X080310Y033230
X078980Y032910
X077950Y033460
X077870Y032440
X076850Y032600
X076850Y031180
X077480Y030940
X073700Y031340
X073700Y032050
X073700Y033070
X073780Y034250
X073620Y035280
X072600Y035120
X071890Y035980
X071260Y035590
X071260Y036690
X071970Y036850
X071570Y037400
X071340Y038500
X071970Y038580
X071730Y039210
X072910Y038820
X073230Y037800
X072990Y037170
X073940Y036300
X075280Y036380
X075830Y035200
X079060Y036850
X079920Y037870
X080790Y038740
X079920Y039610
X079370Y039060
X078500Y038820
X077010Y039760
X076460Y039840
X076220Y041020
X077010Y041570
X077010Y042360
X076220Y042520
X074650Y042990
X074570Y042360
X079370Y040470
X079920Y041100
X080710Y041650
X081340Y041180
X082360Y041340
X082360Y042520
X081260Y042760
X079920Y042200
X082440Y043780
X084570Y044250
X085200Y042910
X085750Y042600
X086300Y042360
X086770Y042600
X087400Y042280
X088030Y044800
X087400Y045040
X088350Y047950
X087560Y048500
X086930Y049130
X086140Y049130
X089450Y048500
X089920Y047950
X090710Y044490
X091100Y043620
X091100Y042600
X091570Y042360
X091570Y041890
X091100Y041890
X090870Y041260
X091570Y041260
X091650Y040470
X090630Y040550
X090080Y040630
X090470Y039290
X091570Y038820
X091970Y035980
X092760Y035980
X090940Y035980
X089690Y034800
X091500Y031420
X092520Y031340
X093540Y031340
X094250Y031340
X095040Y030870
X094250Y030240
X093540Y030240
X092520Y030160
X092050Y029060
X091020Y029060
X094410Y028660
X095040Y029760
X095040Y031890
X098350Y033150
X098350Y033780
X098350Y034330
X098350Y034960
X098350Y035510
X098350Y036140
X098350Y036770
X098350Y037320
X098820Y038030
X098270Y038740
X098270Y039920
X098270Y040470
X098270Y041100
X099370Y041100
X100470Y041100
X101650Y041100
X101650Y041730
X101650Y040470
X101650Y039920
X101650Y039290
X101650Y038740
X101100Y038030
X101650Y037320
X101650Y036770
X101650Y036140
X101650Y035510
X102280Y036060
X102280Y036610
X102280Y037170
X100550Y036770
X099450Y036770
X099450Y037320
X100000Y038030
X099450Y035510
X100550Y034960
X101650Y034330
X102990Y034330
X102990Y033780
X102990Y033150
X104020Y033860
X103700Y034720
X104330Y035040
X105280Y034720
X105910Y035120
X106930Y035280
X106930Y034570
X106930Y033860
X105830Y033460
X105040Y032910
X106060Y032200
X105510Y030630
X105040Y030310
X106060Y030390
X106610Y029210
X107640Y028270
X107090Y027400
X106060Y027480
X106060Y027090
X106140Y026380
X106140Y025430
X105590Y025590
X106060Y024720
X106060Y024090
X107170Y024090
X107170Y024720
X107560Y025430
X107560Y026220
X108190Y026220
X108430Y025350
X108820Y023620
X110160Y023860
X111260Y022990
X112360Y022990
X112910Y022600
X112910Y021890
X113940Y021730
X113940Y022520
X113940Y024020
X112360Y024170
X112200Y025280
X112910Y025280
X112360Y026380
X112910Y027320
X113940Y027090
X113940Y028980
X113390Y030080
X112360Y029690
X111260Y030240
X110240Y029370
X110710Y028270
X111810Y027950
X111260Y026380
X109130Y027720
X105040Y028190
X105040Y028660
X105040Y029130
X104650Y027170
X104170Y026380
X103940Y024020
X102520Y023070
X102050Y021730
X101970Y020790
X101730Y020240
X101260Y020790
X101420Y019210
X101890Y017800
X103230Y017870
X104090Y017870
X103700Y018740
X102990Y019690
X103390Y020240
X102910Y020790
X103860Y021340
X104250Y021340
X105510Y020790
X105670Y020240
X106140Y020240
X106460Y019290
X107320Y019690
X108430Y018740
X108740Y020240
X109210Y020240
X110470Y020240
X111020Y020240
X110710Y021260
X110160Y021650
X111810Y021260
X113940Y020870
X115980Y020790
X115980Y021260
X115980Y021730
X115980Y022200
X115980Y022680
X115980Y023150
X115980Y023540
X115980Y023940
X116460Y023940
X116460Y023540
X116460Y023150
X116930Y023150
X116930Y023540
X116930Y025200
X116930Y025590
X115980Y025590
X115980Y025200
X115980Y026060
X115980Y026540
X115980Y027010
X118430Y026690
X118430Y026300
X118430Y025910
X120160Y026060
X120160Y025670
X120160Y025280
X120160Y026850
X120160Y027240
X120160Y027640
X118430Y027950
X118430Y028500
X118430Y028900
X118430Y030080
X118500Y031180
X118900Y031180
X118900Y032830
X119840Y032830
X120870Y033230
X121340Y030000
X120080Y030000
X122830Y029290
X122830Y028900
X122680Y028110
X122680Y027720
X122680Y027320
X122130Y027240
X122130Y026850
X122130Y026140
X122130Y025750
X122130Y025350
X122680Y025350
X122680Y025750
X122680Y026140
X123230Y026140
X123230Y025750
X123230Y025350
X123070Y024640
X122680Y024640
X122280Y024640
X122520Y024010
X122910Y024020
X123310Y024010
X123460Y023700
X123460Y023310
X123460Y022910
X123460Y022440
X123460Y022050
X123460Y021650
X123460Y021180
X123460Y020790
X123460Y020390
X122910Y020310
X122910Y020710
X122910Y021100
X122910Y021500
X122910Y021890
X122910Y022280
X122910Y022680
X122910Y023070
X122910Y023460
X122360Y023540
X122360Y023150
X122360Y022760
X122360Y022130
X122360Y021730
X122360Y021340
X122360Y020870
X122360Y020470
X122440Y019840
X122760Y019840
X122910Y019370
X122910Y018980
X122910Y018580
X123460Y018580
X123460Y018980
X123460Y019370
X122360Y018980
X122360Y018580
X122360Y017950
X122360Y017560
X122360Y017170
X122910Y017170
X122910Y017560
X122910Y017950
X123460Y017950
X123460Y017560
X123460Y017170
X123460Y016540
X123460Y016140
X123460Y015750
X122910Y015750
X122910Y016140
X122910Y016540
X122360Y016540
X122360Y016140
X122360Y015750
X122360Y015040
X122360Y014650
X122360Y014250
X122910Y014250
X122910Y014650
X122910Y015040
X123460Y015040
X123460Y014650
X123460Y014250
X123310Y013620
X122910Y013620
X122520Y013620
X122600Y012910
X122200Y012910
X122130Y012520
X122130Y012130
X122130Y011730
X122680Y011890
X122680Y011500
X123230Y011420
X123230Y011810
X123230Y012200
X123230Y012600
X122990Y012910
X122680Y012280
X122130Y011100
X122130Y010710
X122130Y010310
X122680Y010390
X122680Y010000
X122440Y009690
X122130Y009690
X122130Y008980
X122130Y008580
X122130Y008190
X122280Y007790
X122680Y007790
X123070Y007790
X123230Y008190
X123230Y008580
X123230Y008980
X123230Y009450
X123230Y009840
X123230Y010240
X123230Y010630
X123230Y011020
X122680Y010790
X122680Y009210
X122680Y008820
X122680Y008430
X120160Y011340
X120160Y011890
X120160Y012440
X120160Y013070
X120160Y013620
X120160Y014170
X119060Y014330
X118430Y014020
X117240Y014020
X116770Y014020
X116300Y014020
X115980Y013940
X115980Y013070
X115980Y012200
X115980Y011340
X117400Y010240
X118430Y010080
X118430Y010630
X118430Y011340
X114960Y015040
X113700Y015040
X112760Y014880
X111810Y015350
X113310Y015980
X113310Y016770
X112200Y017400
X112200Y017800
X111730Y018500
X112520Y018660
X110390Y018580
X110310Y016850
X110870Y016850
X109530Y014880
X108900Y015350
X107400Y015830
X106540Y015830
X106540Y016850
X106060Y016850
X107640Y017400
X108190Y016850
X105120Y015200
X104650Y015200
X103620Y015200
X103860Y016850
X100870Y016850
X100080Y016850
X099210Y018270
X098660Y018270
X097480Y018740
X096770Y018740
X097170Y017800
X097480Y016850
X095980Y017800
X095670Y018350
X095120Y018740
X094570Y019690
X093780Y019690
X093150Y018740
X093070Y017800
X092130Y018270
X092200Y016380
X092760Y016380
X092760Y015750
X092200Y015750
X091810Y014720
X090940Y014090
X090630Y013310
X089690Y013390
X089920Y014170
X089130Y014720
X088660Y014720
X088190Y013860
X088820Y013620
X088350Y012760
X087240Y013460
X086460Y012910
X085830Y013070
X085350Y012200
X084880Y011570
X084570Y011570
X083700Y012130
X082910Y012600
X082200Y013070
X081970Y013780
X082990Y014330
X083620Y014800
X084250Y014800
X084880Y014330
X084720Y013780
X083700Y013780
X083860Y015750
X084410Y015750
X085350Y015750
X085590Y016770
X086220Y017480
X087010Y016770
X087800Y016380
X088270Y016690
X088430Y017400
X089370Y017800
X089920Y017800
X090080Y016690
X090940Y016690
X090940Y015670
X090080Y015670
X089210Y015670
X088270Y015670
X087560Y015830
X089210Y016690
X085980Y014720
X084410Y016770
X083700Y016770
X083780Y017320
X082910Y017640
X082910Y016770
X082130Y016770
X081260Y016770
X080710Y016770
X080710Y015750
X081260Y015750
X082130Y015750
X082990Y015750
X080160Y014570
X081020Y012760
X081730Y012200
X081970Y011570
X082830Y011570
X084020Y010240
X084800Y009530
X084570Y008980
X084650Y008270
X083070Y009450
X081340Y009450
X080870Y010240
X079610Y009450
X080080Y008500
X079760Y011570
X080160Y012280
X075510Y010390
X074410Y009610
X072280Y007320
X071650Y007320
X070940Y007320
X070310Y007320
X069610Y007320
X068900Y007320
X068430Y006140
X068900Y005750
X069610Y005750
X070310Y005750
X070940Y005750
X071650Y005750
X072280Y005750
X067560Y005750
X065280Y011890
X063700Y011890
X063150Y013390
X064490Y013860
X065120Y018820
X063700Y018900
X063070Y018660
X062760Y018660
X061570Y018820
X061020Y019530
X061020Y019920
X060000Y019210
X058500Y018900
X058500Y018270
X057400Y018270
X057400Y018900
X057400Y019530
X057400Y020160
X057870Y020790
X058580Y021260
X058500Y020160
X058500Y019530
X056540Y018900
X055910Y020470
X055350Y020550
X055120Y021180
X054490Y020710
X054720Y019920
X054090Y019370
X053620Y019370
X053150Y019370
X052280Y019840
X052440Y020870
X051810Y021340
X051570Y020870
X051020Y020470
X049920Y020710
X049840Y019840
X050630Y019370
X050390Y018740
X049840Y018740
X048820Y018740
X048270Y019760
X047720Y019760
X047560Y020240
X047170Y021340
X046610Y021340
X046610Y021730
X047400Y021890
X048110Y021340
X048900Y021890
X048430Y022360
X047870Y024020
X047720Y024880
X048350Y024880
X049130Y024410
X049370Y025830
X050080Y026460
X050080Y027400
X051260Y028500
X051500Y029530
X050870Y029920
X050080Y029530
X049920Y030160
X049690Y031020
X050240Y031020
X049840Y031970
X050240Y032990
X051500Y032990
X052280Y033460
X052680Y034490
X052910Y034960
X052520Y035980
X051970Y035980
X051420Y035430
X051100Y035980
X051100Y034090
X049920Y034490
X049290Y034960
X048900Y032990
X048270Y032990
X048110Y032440
X047400Y032050
X048660Y031020
X048660Y030240
X049060Y029530
X051340Y031180
X051810Y031650
X052200Y032360
X053310Y031180
X052440Y030710
X052360Y029610
X053700Y029060
X055120Y029060
X055670Y029530
X056770Y029450
X056850Y030470
X056220Y030630
X055510Y031730
X055830Y032600
X056060Y033310
X055280Y034090
X054800Y034960
X055910Y035670
X058110Y035200
X056770Y032130
X057870Y031180
X057870Y030470
X059370Y029450
X060000Y028430
X060790Y028430
X061650Y028660
X062440Y027560
X062130Y027010
X062130Y026540
X062130Y025910
X062130Y025350
X062050Y024800
X062050Y024330
X061260Y023390
X060790Y023150
X060310Y022830
X059610Y023390
X058820Y023780
X058660Y023310
X058740Y024330
X058740Y025750
X058350Y025750
X057480Y026300
X057170Y025750
X056770Y025200
X056380Y023780
X056540Y023310
X054020Y023780
X053310Y024330
X052600Y024960
X052600Y025350
X051810Y025350
X051810Y024880
X051260Y024880
X052760Y023390
X052910Y021810
X053150Y021260
X054250Y021810
X053780Y025280
X054720Y025830
X054960Y027400
X053540Y027400
X052520Y026850
X052200Y027400
X051730Y027480
X054170Y030630
X054410Y031180
X054880Y032990
X053460Y035980
X053310Y038740
X058980Y038500
X060390Y040000
X061180Y040940
X061730Y042050
X061500Y042680
X060470Y042830
X059690Y042990
X060000Y042130
X060000Y041340
X062280Y040000
X062600Y040470
X063150Y040470
X062910Y041260
X063780Y041810
X064410Y042280
X063390Y042760
X062760Y043150
X064020Y040470
X064490Y040160
X064960Y039530
X065670Y039530
X066380Y039610
X067090Y039610
X067170Y039130
X067170Y038580
X067010Y038110
X067170Y037560
X067170Y036610
X066690Y035830
X066220Y035980
X066140Y036540
X064960Y036610
X064250Y036690
X064020Y037170
X063230Y038190
X063310Y039450
X065910Y040630
X065910Y041100
X066610Y041100
X067560Y041570
X068190Y041730
X068270Y040470
X067870Y039920
X069840Y038580
X069840Y038110
X069840Y037560
X069450Y037090
X069210Y036610
X070160Y035910
X070160Y033860
X071890Y033150
X072440Y033390
X071890Y031970
X071890Y031650
X072440Y031810
X065430Y031570
X063540Y033620
X063540Y034410
X064170Y035040
X062990Y035510
X062600Y035510
X062520Y034490
X061340Y033620
X060940Y030940
X058900Y027720
X058900Y027320
X059690Y027320
X060630Y026930
X060550Y024960
X060630Y023860
X061500Y022680
X061500Y021810
X062830Y020000
X063310Y019920
X054880Y017870
X051730Y018350
X048820Y020240
X046610Y018740
X046220Y019210
X044720Y019760
X043780Y020240
X042830Y021340
X042360Y021340
X042600Y021890
X043540Y022360
X043390Y022830
X044250Y021730
X045510Y021810
X045510Y021340
X044800Y024330
X044250Y024330
X046850Y025910
X044410Y029530
X044090Y030240
X043460Y030940
X042830Y031100
X042200Y031100
X041570Y031570
X042130Y032440
X041650Y032990
X041730Y033460
X042910Y032990
X042990Y034020
X041890Y035510
X041890Y035980
X042440Y035910
X042200Y037010
X043070Y037480
X042360Y038110
X043230Y038580
X043230Y040080
X041500Y039920
X041500Y040470
X040470Y040470
X040080Y039610
X039920Y039060
X041420Y038580
X041020Y037010
X040080Y037010
X039840Y035980
X038110Y034960
X038190Y034490
X037170Y034490
X037010Y033540
X036380Y033940
X036380Y032990
X037870Y032990
X038110Y032440
X038900Y032050
X039530Y032440
X039290Y032990
X040310Y032990
X040470Y032440
X044880Y031020
X045120Y032990
X045120Y033310
X045120Y033940
X045750Y032990
X044570Y035910
X043620Y035910
X044170Y037010
X045590Y038660
X036850Y035980
X031970Y037010
X031020Y037560
X031100Y038580
X030470Y040000
X029920Y040390
X031100Y040470
X031020Y041420
X030310Y041890
X034020Y040470
X029290Y035430
X028740Y035980
X027560Y034880
X027800Y034330
X027480Y033390
X028270Y033390
X028900Y033150
X028660Y031970
X027950Y032360
X027010Y032600
X025830Y032600
X025510Y032600
X024800Y032910
X025200Y033780
X025830Y033390
X023940Y034330
X023460Y034330
X022680Y034880
X022050Y035590
X022680Y035910
X022760Y037010
X022520Y037560
X021180Y037870
X020940Y038430
X020940Y039060
X020940Y039610
X020310Y037090
X020310Y036380
X020870Y036460
X021100Y035510
X021100Y034880
X020870Y034330
X021420Y033780
X022200Y031890
X023780Y032440
X024490Y031500
X024170Y035430
X025350Y035910
X026060Y037010
X025040Y037560
X024090Y037560
X023940Y037010
X024650Y038740
X024570Y043460
X023150Y043460
X022440Y043460
X023230Y044490
X024490Y046460
X024650Y046930
X023460Y047950
X019370Y045670
X015750Y043940
X015910Y042680
X015120Y041890
X018900Y033310
X018430Y029840
X024330Y023070
X025750Y022050
X026060Y022050
X026380Y022050
X026140Y022600
X028270Y024250
X031500Y025120
X032830Y025590
X030160Y030470
X030310Y031500
X030160Y032990
X030470Y032990
X030550Y033780
X036460Y020710
X037400Y020240
X038430Y021340
X038900Y021340
X040310Y022200
X041180Y022280
X041180Y021970
X041810Y019690
X041100Y019290
X043070Y017010
X042280Y016140
X043860Y015200
X044800Y015670
X045590Y016140
X046220Y016140
X047170Y016930
X048110Y016140
X045910Y014800
X045280Y013860
X044880Y013390
X044330Y013390
X043390Y013860
X043230Y011890
X042200Y011890
X044410Y011890
X044490Y010470
X045670Y010550
X045350Y007320
X044720Y007320
X044020Y007320
X043310Y007320
X042830Y006140
X043310Y005750
X044020Y005750
X044720Y005750
X045350Y005750
X046060Y005750
X046690Y005750
X046690Y007320
X046060Y007320
X048820Y009610
X051730Y009610
X053860Y009690
X055430Y010160
X056060Y009370
X056770Y009370
X056770Y007320
X057480Y007320
X058110Y007320
X058820Y007320
X059450Y007320
X059450Y005750
X058820Y005750
X058110Y005750
X057480Y005750
X056770Y005750
X056060Y005750
X055590Y006140
X054720Y005750
X056060Y007320
X056060Y011890
X054960Y011890
X053940Y013860
X052520Y011890
X050870Y011890
X057240Y011890
X044250Y016850
X041100Y013860
X035750Y014250
X034570Y013390
X033860Y013390
X035980Y009610
X033860Y007320
X033230Y007320
X032520Y007320
X031890Y007320
X031180Y007320
X030470Y007320
X030000Y006140
X030470Y005750
X031180Y005750
X031890Y005750
X032520Y005750
X033230Y005750
X033860Y005750
X029130Y005750
X041970Y005750
X057400Y027170
X057240Y027720
X057870Y028270
X065910Y035350
X068190Y037480
X065830Y041890
X066850Y043150
X067950Y043860
X067870Y044410
X064170Y046850
X064170Y047320
X063620Y047240
X063070Y048030
X062600Y054490
X061500Y054960
X061500Y055510
X062280Y056770
X062910Y056060
X064330Y055040
X065430Y054410
X066220Y055350
X066300Y056060
X066460Y056850
X066460Y057400
X065670Y057950
X065670Y058900
X064720Y057800
X064170Y057800
X063700Y057800
X066220Y060310
X066770Y060000
X066690Y061260
X067170Y061650
X068270Y061650
X069370Y062990
X070390Y063460
X070390Y061730
X067720Y063700
X068980Y066300
X073620Y068900
X073460Y069920
X080160Y074410
X080630Y074650
X081100Y075510
X082280Y075590
X083310Y075040
X083150Y074250
X082680Y074250
X082680Y073700
X081180Y073780
X082360Y071970
X083860Y071970
X088430Y068820
X087870Y067720
X089690Y067950
X089920Y068430
X090470Y066930
X089210Y065980
X084330Y064250
X082990Y064720
X083460Y063070
X083460Y062600
X082440Y062600
X081970Y060940
X082680Y060390
X080630Y060390
X081260Y058900
X081020Y058350
X080240Y058350
X079920Y058900
X079060Y057720
X078270Y058270
X078190Y058900
X077640Y060470
X078500Y056060
X079060Y056060
X079610Y056060
X081180Y057320
X082280Y057320
X082130Y056060
X083310Y056060
X084410Y056060
X085350Y054960
X093620Y053860
X095510Y053540
X097480Y052360
X098660Y050240
X099840Y049760
X101260Y051890
X102910Y052280
X103540Y053070
X104880Y051420
X108270Y051650
X108270Y051180
X108820Y050240
X108270Y048740
X108820Y047800
X110790Y047640
X110790Y047010
X113460Y047170
X113940Y048350
X114410Y049210
X113940Y050160
X113070Y050470
X113070Y051340
X113460Y052680
X113070Y053700
X112600Y054250
X113460Y055510
X114410Y056220
X114960Y055590
X114960Y055200
X114410Y054650
X114410Y053390
X114960Y052990
X114960Y052130
X115120Y051420
X116140Y051890
X117240Y052280
X116850Y053460
X116850Y054020
X116140Y054020
X116140Y053460
X116770Y055980
X116140Y057170
X116140Y059130
X116140Y059610
X115590Y059610
X115590Y059130
X114960Y059060
X114960Y059920
X114960Y061100
X116140Y060790
X116770Y061100
X117240Y062280
X117240Y062910
X116140Y062910
X116140Y063620
X115910Y063620
X114960Y063460
X113460Y063860
X112440Y064800
X113460Y061420
X111650Y061100
X113460Y059210
X112130Y057720
X111180Y057870
X110240Y056460
X111180Y056060
X112130Y056060
X113070Y056770
X108740Y056770
X108740Y055750
X108190Y055510
X108190Y054960
X109290Y054490
X108740Y053860
X106930Y046220
X105910Y045350
X105350Y044720
X104650Y044960
X104090Y044090
X104650Y043780
X104090Y042910
X103540Y042680
X103540Y042130
X103540Y041180
X103540Y040630
X104090Y039920
X103540Y039690
X103540Y038900
X104250Y038350
X104250Y037870
X104250Y037400
X104250Y036930
X105280Y038030
X105280Y038740
X106460Y039610
X106460Y040000
X106460Y040390
X106770Y041260
X105910Y041650
X104720Y042440
X106460Y043310
X108030Y043940
X108030Y044490
X108030Y041890
X107640Y040470
X108270Y039610
X107640Y038740
X107640Y038270
X106460Y037560
X106610Y036610
X106930Y036610
X107640Y036690
X105910Y036770
X105910Y036380
X102990Y035510
X102990Y034960
X101100Y032520
X108900Y032680
X108900Y033310
X110160Y034330
X111570Y033780
X111570Y032440
X110310Y031730
X113070Y031890
X113780Y032280
X113780Y033070
X113780Y033940
X113780Y034330
X113780Y034720
X113150Y036060
X113940Y037010
X113940Y037320
X114960Y037170
X116220Y038350
X116610Y038350
X116770Y037720
X116770Y037170
X116770Y036220
X117560Y035910
X118030Y036460
X119450Y037010
X120870Y038500
X120870Y039290
X120310Y039610
X120310Y040160
X121500Y040870
X121500Y041650
X119840Y043070
X118820Y042520
X118270Y041500
X117870Y040790
X117870Y040160
X118270Y039290
X118270Y038820
X116220Y039610
X116220Y040790
X116220Y041890
X116770Y042830
X114960Y043310
X114960Y044170
X114960Y044490
X114960Y044800
X116220Y045280
X116770Y046140
X116770Y046770
X116770Y047950
X118350Y047240
X120870Y047720
X120710Y048430
X120870Y049210
X120310Y050710
X119760Y050470
X118740Y050160
X118270Y051100
X116220Y049920
X114960Y047950
X114960Y047480
X113070Y045510
X114490Y042440
X113940Y042130
X112760Y040310
X113460Y039290
X113860Y038660
X114960Y039690
X112360Y038110
X110160Y039610
X110390Y041730
X111730Y041260
X118820Y044090
X122130Y045750
X120870Y051890
X120870Y052360
X120870Y052830
X122130Y052050
X122130Y053940
X122130Y054330
X121500Y055830
X121500Y056610
X122130Y057480
X120870Y058270
X119760Y059760
X120870Y060240
X120870Y061260
X122130Y062130
X122130Y062680
X122130Y063230
X120310Y064020
X120870Y065040
X120870Y065510
X122130Y065350
X122830Y065280
X119840Y062830
X118740Y062280
X118820Y058350
X119760Y056610
X120240Y055830
X120240Y055120
X118740Y053940
X117010Y065830
X118900Y066460
X116850Y068270
X119530Y070000
X124250Y077010
X124250Y077560
X124250Y078110
X124250Y078500
X124250Y079060
X124250Y079610
X124250Y080000
X124250Y080550
X124250Y081100
X125430Y081100
X125430Y080550
X125430Y080000
X125430Y079610
X125430Y079060
X125430Y078500
X125430Y078110
X125430Y077560
X125430Y077010
X106850Y065830
X106850Y063700
X106850Y063150
X097870Y078190
X097240Y078190
X095040Y078190
X093940Y078190
X083310Y078820
X083310Y079840
X083310Y081890
X082830Y077720
X081420Y077720
X080630Y077720
X079690Y078350
X078980Y078350
X081810Y090940
X080710Y091730
X084720Y099450
X085670Y106540
X086540Y107870
X086540Y111500
X082600Y108660
X081890Y108740
X081340Y108500
X080940Y109060
X080390Y108500
X080080Y109060
X092830Y093150
X092830Y092600
X092830Y092050
X092830Y091500
X093940Y091500
X093940Y092050
X093940Y092600
X093940Y093150
X095040Y093150
X095040Y092600
X095040Y092050
X095040Y091500
X096540Y091810
X096540Y092830
X098580Y093700
X098580Y094570
X100160Y093620
X100790Y093620
X102910Y093230
X104170Y092760
X103540Y094490
X102360Y095980
X103310Y096610
X107240Y096300
X107240Y097090
X107240Y097560
X107240Y098110
X107240Y098660
X107870Y099450
X108740Y099370
X109450Y098660
X108580Y098030
X107870Y100390
X107870Y101650
X108430Y101650
X108980Y101650
X109530Y101650
X110000Y101650
X111020Y101650
X111500Y101650
X112440Y101570
X112440Y102130
X112050Y102990
X111500Y104020
X110630Y103540
X109290Y104650
X109610Y105200
X110470Y106220
X111020Y105670
X107950Y104650
X107480Y104650
X107010Y104020
X106770Y105280
X105280Y105200
X104570Y103460
X103940Y102360
X105510Y101890
X107240Y102130
X107240Y101500
X108900Y102990
X111650Y100080
X111890Y098980
X111340Y098980
X113070Y099450
X113070Y097870
X113700Y096300
X115510Y097170
X114960Y098190
X114960Y098740
X114960Y101100
X114960Y101730
X114960Y102200
X113780Y103460
X116060Y106690
X116380Y107560
X122130Y109370
X122130Y110710
X100790Y091420
X100160Y091420
X070080Y058190
X069610Y058190
X069130Y058190
X068030Y057870
X069130Y056610
X068580Y056060
X070160Y056060
X067170Y055350
X063780Y061650
X062760Y062520
X062200Y062520
X059840Y058900
X057560Y044090
X081730Y037720
X082360Y037800
X083390Y038270
X082360Y039210
X082830Y040080
X083860Y041420
X087170Y037950
X094960Y039920
X096060Y040470
X097170Y039920
X099920Y023540
X097720Y021810
X097240Y020870
X097090Y020240
X098270Y020240
X098500Y020790
X098900Y020790
X099290Y020790
X096300Y021340
X095120Y020790
X095510Y020240
X094250Y021810
X094570Y022600
X095350Y023070
X094020Y016850
X094090Y016380
X093540Y016380
X094880Y016610
X095350Y014250
X094410Y012910
X093940Y012910
X093940Y010710
X094410Y010710
X094880Y010710
X095350Y010710
X095830Y010710
X093390Y010710
X092680Y008270
X090790Y008980
X090000Y009530
X088190Y010240
X086850Y009450
X085590Y010240
X087010Y011570
X089290Y011570
X089840Y011570
X090310Y012200
X097010Y014250
X098980Y014250
X099920Y014250
X100550Y014250
X099370Y015120
X101340Y012910
X100790Y011500
X100240Y011500
X099690Y011500
X101730Y010710
X102600Y010710
X103390Y010710
X104170Y010710
X104250Y010000
X106140Y010310
X106610Y010310
X107090Y010310
X107640Y010310
X108110Y010310
X108580Y010310
X109210Y010310
X109690Y010310
X110160Y010310
X110550Y010240
X110940Y010240
X111340Y010240
X111340Y009610
X110940Y009610
X110550Y009610
X110870Y008660
X111340Y008660
X111810Y008660
X112280Y008660
X112280Y009210
X112280Y009690
X112280Y010080
X112280Y010550
X112280Y011020
X111810Y011100
X111340Y011100
X110870Y011100
X110160Y011100
X109690Y011100
X109210Y011100
X108580Y011100
X108110Y011100
X107640Y011100
X107090Y011100
X106610Y011100
X106140Y011100
X104570Y012910
X102680Y011500
X109450Y012910
X110000Y012910
X110870Y013940
X109920Y008660
X108190Y007170
X116770Y016930
X117320Y016930
X118430Y017240
X118430Y017720
X118430Y018190
X118430Y018900
X118430Y019610
X118430Y020000
X118430Y020630
X118430Y021810
X118430Y022280
X118430Y022760
X120160Y022600
X120160Y022990
X120160Y023390
X120160Y021810
X120160Y021420
X120160Y021020
X120160Y018500
X120160Y018110
X120160Y017720
X120160Y016930
X120160Y016540
X120160Y016140
X115980Y017640
X115980Y018110
X106770Y021650
X116220Y033230
X116220Y034490
X117480Y034330
X117480Y032760
X122130Y027640
X048820Y075350
X047240Y075350
X045670Y076460
X044170Y077480
X044170Y075350
X042600Y075350
X028740Y077480
X028580Y087560
X028900Y088110
X027640Y103940
X029130Y104650
X034330Y103940
X006220Y033540
X006220Y032910
X006220Y032200
X006220Y031570
X006220Y030870
X006220Y030160
X005040Y029690
X004650Y030160
X004650Y030870
X004650Y031570
X004650Y032200
X004650Y032910
X004650Y033540
X004650Y028820
M30
