%FSLAX34Y34*%
%MOMM*%
%LNCOPPER_BOTTOM*%
G71*
G01*
%ADD10C, 0.22*%
%LPD*%
G54D10*
X64000Y1328444D02*
X65333Y1330667D01*
X68000Y1331778D01*
X70667Y1331778D01*
X73333Y1330667D01*
X74667Y1328444D01*
X74667Y1326222D01*
X73333Y1324000D01*
X70667Y1322889D01*
X73333Y1321778D01*
X74667Y1319556D01*
X74667Y1317333D01*
X73333Y1315111D01*
X70667Y1314000D01*
X68000Y1314000D01*
X65333Y1315111D01*
X64000Y1317333D01*
G54D10*
X72000Y990000D02*
X72000Y1007778D01*
X64000Y996667D01*
X64000Y994444D01*
X74667Y994444D01*
G54D10*
X72667Y685778D02*
X62000Y685778D01*
X62000Y678000D01*
X63333Y678000D01*
X66000Y679111D01*
X68667Y679111D01*
X71333Y678000D01*
X72667Y675778D01*
X72667Y671333D01*
X71333Y669111D01*
X68667Y668000D01*
X66000Y668000D01*
X63333Y669111D01*
X62000Y671333D01*
G54D10*
X98000Y1278000D02*
X98000Y1295778D01*
X104667Y1295778D01*
X107333Y1294667D01*
X108667Y1292444D01*
X108667Y1281333D01*
X107333Y1279111D01*
X104667Y1278000D01*
X98000Y1278000D01*
G54D10*
X121556Y1278000D02*
X121556Y1295778D01*
X113556Y1284667D01*
X113556Y1282444D01*
X124223Y1282444D01*
G54D10*
X96000Y956000D02*
X96000Y973778D01*
X102667Y973778D01*
X105333Y972667D01*
X106667Y970444D01*
X106667Y959333D01*
X105333Y957111D01*
X102667Y956000D01*
X96000Y956000D01*
G54D10*
X122223Y973778D02*
X111556Y973778D01*
X111556Y966000D01*
X112889Y966000D01*
X115556Y967111D01*
X118223Y967111D01*
X120889Y966000D01*
X122223Y963778D01*
X122223Y959333D01*
X120889Y957111D01*
X118223Y956000D01*
X115556Y956000D01*
X112889Y957111D01*
X111556Y959333D01*
G54D10*
X98000Y628000D02*
X98000Y645778D01*
X104667Y645778D01*
X107333Y644667D01*
X108667Y642444D01*
X108667Y631333D01*
X107333Y629111D01*
X104667Y628000D01*
X98000Y628000D01*
G54D10*
X124223Y642444D02*
X122889Y644667D01*
X120223Y645778D01*
X117556Y645778D01*
X114889Y644667D01*
X113556Y642444D01*
X113556Y636889D01*
X113556Y635778D01*
X117556Y638000D01*
X120223Y638000D01*
X122889Y636889D01*
X124223Y634667D01*
X124223Y631333D01*
X122889Y629111D01*
X120223Y628000D01*
X117556Y628000D01*
X114889Y629111D01*
X113556Y631333D01*
X113556Y636889D01*
G54D10*
X3180000Y2527778D02*
X3180000Y2510000D01*
X3186666Y2521111D01*
X3193333Y2510000D01*
X3193333Y2527778D01*
G54D10*
X3198222Y2510000D02*
X3204888Y2527778D01*
X3211555Y2510000D01*
G54D10*
X3200888Y2516667D02*
X3208888Y2516667D01*
G54D10*
X3216444Y2510000D02*
X3227110Y2510000D01*
G54D10*
X3221777Y2510000D02*
X3221777Y2527778D01*
G54D10*
X3216444Y2527778D02*
X3227110Y2527778D01*
G54D10*
X3237333Y2510000D02*
X3237333Y2527778D01*
G54D10*
X3232000Y2527778D02*
X3242666Y2527778D01*
G54D10*
X74667Y358444D02*
X73333Y360667D01*
X70667Y361778D01*
X68000Y361778D01*
X65333Y360667D01*
X64000Y358444D01*
X64000Y352889D01*
X64000Y351778D01*
X68000Y354000D01*
X70667Y354000D01*
X73333Y352889D01*
X74667Y350667D01*
X74667Y347333D01*
X73333Y345111D01*
X70667Y344000D01*
X68000Y344000D01*
X65333Y345111D01*
X64000Y347333D01*
X64000Y352889D01*
G54D10*
X588000Y171778D02*
X598667Y171778D01*
X597333Y169556D01*
X594667Y166222D01*
X592000Y161778D01*
X590667Y158444D01*
X590667Y154000D01*
G54D10*
X932666Y164889D02*
X930000Y164889D01*
X927334Y166000D01*
X926000Y168222D01*
X926000Y170444D01*
X927334Y172667D01*
X930000Y173778D01*
X932666Y173778D01*
X935334Y172667D01*
X936666Y170444D01*
X936666Y168222D01*
X935334Y166000D01*
X932666Y164889D01*
X935334Y163778D01*
X936666Y161556D01*
X936666Y159333D01*
X935334Y157111D01*
X932666Y156000D01*
X930000Y156000D01*
X927334Y157111D01*
X926000Y159333D01*
X926000Y161556D01*
X927334Y163778D01*
X930000Y164889D01*
G54D10*
X1250000Y159333D02*
X1251333Y157111D01*
X1254000Y156000D01*
X1256667Y156000D01*
X1259333Y157111D01*
X1260667Y159333D01*
X1260667Y164889D01*
X1260667Y166000D01*
X1256667Y163778D01*
X1254000Y163778D01*
X1251333Y164889D01*
X1250000Y167111D01*
X1250000Y170444D01*
X1251333Y172667D01*
X1254000Y173778D01*
X1256667Y173778D01*
X1259333Y172667D01*
X1260667Y170444D01*
X1260667Y164889D01*
G54D10*
X1576000Y167111D02*
X1582667Y173778D01*
X1582667Y156000D01*
G54D10*
X1598223Y170444D02*
X1598223Y159334D01*
X1596889Y157111D01*
X1594223Y156000D01*
X1591556Y156000D01*
X1588889Y157111D01*
X1587556Y159334D01*
X1587556Y170444D01*
X1588889Y172666D01*
X1591556Y173778D01*
X1594223Y173778D01*
X1596889Y172666D01*
X1598223Y170444D01*
G54D10*
X2026000Y167111D02*
X2032667Y173778D01*
X2032667Y156000D01*
G54D10*
X2048223Y156000D02*
X2037556Y156000D01*
X2037556Y157111D01*
X2038890Y159334D01*
X2046890Y166000D01*
X2048223Y168222D01*
X2048223Y170444D01*
X2046890Y172666D01*
X2044223Y173778D01*
X2041556Y173778D01*
X2038890Y172666D01*
X2037556Y170444D01*
G54D10*
X2218000Y167111D02*
X2224667Y173778D01*
X2224667Y156000D01*
G54D10*
X2229556Y170444D02*
X2230889Y172667D01*
X2233556Y173778D01*
X2236223Y173778D01*
X2238889Y172667D01*
X2240223Y170444D01*
X2240223Y168222D01*
X2238889Y166000D01*
X2236223Y164889D01*
X2238889Y163778D01*
X2240223Y161556D01*
X2240223Y159333D01*
X2238889Y157111D01*
X2236223Y156000D01*
X2233556Y156000D01*
X2230889Y157111D01*
X2229556Y159333D01*
G54D10*
X2418000Y167111D02*
X2424667Y173778D01*
X2424667Y156000D01*
G54D10*
X2437556Y156000D02*
X2437556Y173778D01*
X2429556Y162666D01*
X2429556Y160444D01*
X2440223Y160444D01*
G54D10*
X3164000Y205111D02*
X3170667Y211778D01*
X3170667Y194000D01*
G54D10*
X3186223Y211778D02*
X3175556Y211778D01*
X3175556Y204000D01*
X3176889Y204000D01*
X3179556Y205111D01*
X3182223Y205111D01*
X3184889Y204000D01*
X3186223Y201778D01*
X3186223Y197333D01*
X3184889Y195111D01*
X3182223Y194000D01*
X3179556Y194000D01*
X3176889Y195111D01*
X3175556Y197333D01*
G54D10*
X72000Y2072000D02*
X72000Y2089778D01*
X64000Y2078667D01*
X64000Y2076444D01*
X74667Y2076444D01*
G54D10*
X90223Y2086444D02*
X90223Y2075333D01*
X88889Y2073111D01*
X86223Y2072000D01*
X83556Y2072000D01*
X80889Y2073111D01*
X79556Y2075333D01*
X79556Y2086444D01*
X80889Y2088667D01*
X83556Y2089778D01*
X86223Y2089778D01*
X88889Y2088667D01*
X90223Y2086444D01*
G54D10*
X64000Y1927111D02*
X70667Y1933778D01*
X70667Y1916000D01*
G54D10*
X76667Y1746000D02*
X66000Y1746000D01*
X66000Y1747111D01*
X67333Y1749333D01*
X75333Y1756000D01*
X76667Y1758222D01*
X76667Y1760444D01*
X75333Y1762667D01*
X72667Y1763778D01*
X70000Y1763778D01*
X67333Y1762667D01*
X66000Y1760444D01*
G54D10*
X3174666Y1880000D02*
X3164000Y1880000D01*
X3164000Y1881111D01*
X3165334Y1883334D01*
X3173334Y1890000D01*
X3174666Y1892222D01*
X3174666Y1894444D01*
X3173334Y1896666D01*
X3170666Y1897778D01*
X3168000Y1897778D01*
X3165334Y1896666D01*
X3164000Y1894444D01*
G54D10*
X3179556Y1891111D02*
X3186222Y1897778D01*
X3186222Y1880000D01*
G54D10*
X3172666Y2226000D02*
X3162000Y2226000D01*
X3162000Y2227111D01*
X3163334Y2229334D01*
X3171334Y2236000D01*
X3172666Y2238222D01*
X3172666Y2240444D01*
X3171334Y2242666D01*
X3168666Y2243778D01*
X3166000Y2243778D01*
X3163334Y2242666D01*
X3162000Y2240444D01*
G54D10*
X3188222Y2226000D02*
X3177556Y2226000D01*
X3177556Y2227111D01*
X3178890Y2229334D01*
X3186890Y2236000D01*
X3188222Y2238222D01*
X3188222Y2240444D01*
X3186890Y2242666D01*
X3184222Y2243778D01*
X3181556Y2243778D01*
X3178890Y2242666D01*
X3177556Y2240444D01*
G54D10*
X3172666Y2386000D02*
X3162000Y2386000D01*
X3162000Y2387111D01*
X3163334Y2389334D01*
X3171334Y2396000D01*
X3172666Y2398222D01*
X3172666Y2400444D01*
X3171334Y2402666D01*
X3168666Y2403778D01*
X3166000Y2403778D01*
X3163334Y2402666D01*
X3162000Y2400444D01*
G54D10*
X3177556Y2400444D02*
X3178890Y2402666D01*
X3181556Y2403778D01*
X3184222Y2403778D01*
X3186890Y2402666D01*
X3188222Y2400444D01*
X3188222Y2398222D01*
X3186890Y2396000D01*
X3184222Y2394889D01*
X3186890Y2393778D01*
X3188222Y2391556D01*
X3188222Y2389334D01*
X3186890Y2387111D01*
X3184222Y2386000D01*
X3181556Y2386000D01*
X3178890Y2387111D01*
X3177556Y2389334D01*
G54D10*
X3174666Y2546000D02*
X3164000Y2546000D01*
X3164000Y2547111D01*
X3165334Y2549333D01*
X3173334Y2556000D01*
X3174666Y2558222D01*
X3174666Y2560444D01*
X3173334Y2562667D01*
X3170666Y2563778D01*
X3168000Y2563778D01*
X3165334Y2562667D01*
X3164000Y2560444D01*
G54D10*
X3187556Y2546000D02*
X3187556Y2563778D01*
X3179556Y2552667D01*
X3179556Y2550444D01*
X3190222Y2550444D01*
G54D10*
X3174666Y2706000D02*
X3164000Y2706000D01*
X3164000Y2707111D01*
X3165334Y2709333D01*
X3173334Y2716000D01*
X3174666Y2718222D01*
X3174666Y2720444D01*
X3173334Y2722667D01*
X3170666Y2723778D01*
X3168000Y2723778D01*
X3165334Y2722667D01*
X3164000Y2720444D01*
G54D10*
X3190222Y2723778D02*
X3179556Y2723778D01*
X3179556Y2716000D01*
X3180890Y2716000D01*
X3183556Y2717111D01*
X3186222Y2717111D01*
X3188890Y2716000D01*
X3190222Y2713778D01*
X3190222Y2709333D01*
X3188890Y2707111D01*
X3186222Y2706000D01*
X3183556Y2706000D01*
X3180890Y2707111D01*
X3179556Y2709333D01*
G54D10*
X3172666Y2856000D02*
X3162000Y2856000D01*
X3162000Y2857111D01*
X3163334Y2859333D01*
X3171334Y2866000D01*
X3172666Y2868222D01*
X3172666Y2870444D01*
X3171334Y2872667D01*
X3168666Y2873778D01*
X3166000Y2873778D01*
X3163334Y2872667D01*
X3162000Y2870444D01*
G54D10*
X3188222Y2870444D02*
X3186890Y2872667D01*
X3184222Y2873778D01*
X3181556Y2873778D01*
X3178890Y2872667D01*
X3177556Y2870444D01*
X3177556Y2864889D01*
X3177556Y2863778D01*
X3181556Y2866000D01*
X3184222Y2866000D01*
X3186890Y2864889D01*
X3188222Y2862667D01*
X3188222Y2859333D01*
X3186890Y2857111D01*
X3184222Y2856000D01*
X3181556Y2856000D01*
X3178890Y2857111D01*
X3177556Y2859333D01*
X3177556Y2864889D01*
G54D10*
X1950666Y2884000D02*
X1940000Y2884000D01*
X1940000Y2885111D01*
X1941334Y2887333D01*
X1949334Y2894000D01*
X1950666Y2896222D01*
X1950666Y2898444D01*
X1949334Y2900667D01*
X1946666Y2901778D01*
X1944000Y2901778D01*
X1941334Y2900667D01*
X1940000Y2898444D01*
G54D10*
X1955556Y2901778D02*
X1966222Y2901778D01*
X1964890Y2899556D01*
X1962222Y2896222D01*
X1959556Y2891778D01*
X1958222Y2888444D01*
X1958222Y2884000D01*
G54D10*
X1682667Y2884000D02*
X1672000Y2884000D01*
X1672000Y2885111D01*
X1673333Y2887333D01*
X1681333Y2894000D01*
X1682667Y2896222D01*
X1682667Y2898444D01*
X1681333Y2900667D01*
X1678667Y2901778D01*
X1676000Y2901778D01*
X1673333Y2900667D01*
X1672000Y2898444D01*
G54D10*
X1694223Y2892889D02*
X1691556Y2892889D01*
X1688889Y2894000D01*
X1687556Y2896222D01*
X1687556Y2898444D01*
X1688889Y2900667D01*
X1691556Y2901778D01*
X1694223Y2901778D01*
X1696889Y2900667D01*
X1698223Y2898444D01*
X1698223Y2896222D01*
X1696889Y2894000D01*
X1694223Y2892889D01*
X1696889Y2891778D01*
X1698223Y2889556D01*
X1698223Y2887333D01*
X1696889Y2885111D01*
X1694223Y2884000D01*
X1691556Y2884000D01*
X1688889Y2885111D01*
X1687556Y2887333D01*
X1687556Y2889556D01*
X1688889Y2891778D01*
X1691556Y2892889D01*
G54D10*
X1292667Y2888000D02*
X1282000Y2888000D01*
X1282000Y2889111D01*
X1283333Y2891333D01*
X1291333Y2898000D01*
X1292667Y2900222D01*
X1292667Y2902444D01*
X1291333Y2904667D01*
X1288667Y2905778D01*
X1286000Y2905778D01*
X1283333Y2904667D01*
X1282000Y2902444D01*
G54D10*
X1297556Y2891333D02*
X1298889Y2889111D01*
X1301556Y2888000D01*
X1304223Y2888000D01*
X1306889Y2889111D01*
X1308223Y2891333D01*
X1308223Y2896889D01*
X1308223Y2898000D01*
X1304223Y2895778D01*
X1301556Y2895778D01*
X1298889Y2896889D01*
X1297556Y2899111D01*
X1297556Y2902444D01*
X1298889Y2904667D01*
X1301556Y2905778D01*
X1304223Y2905778D01*
X1306889Y2904667D01*
X1308223Y2902444D01*
X1308223Y2896889D01*
G54D10*
X1124000Y2900444D02*
X1125333Y2902667D01*
X1128000Y2903778D01*
X1130667Y2903778D01*
X1133333Y2902667D01*
X1134667Y2900444D01*
X1134667Y2898222D01*
X1133333Y2896000D01*
X1130667Y2894889D01*
X1133333Y2893778D01*
X1134667Y2891556D01*
X1134667Y2889333D01*
X1133333Y2887111D01*
X1130667Y2886000D01*
X1128000Y2886000D01*
X1125333Y2887111D01*
X1124000Y2889333D01*
G54D10*
X1150223Y2900444D02*
X1150223Y2889333D01*
X1148889Y2887111D01*
X1146223Y2886000D01*
X1143556Y2886000D01*
X1140889Y2887111D01*
X1139556Y2889333D01*
X1139556Y2900444D01*
X1140889Y2902667D01*
X1143556Y2903778D01*
X1146223Y2903778D01*
X1148889Y2902667D01*
X1150223Y2900444D01*
G54D10*
X966000Y2898444D02*
X967333Y2900667D01*
X970000Y2901778D01*
X972667Y2901778D01*
X975333Y2900667D01*
X976667Y2898444D01*
X976667Y2896222D01*
X975333Y2894000D01*
X972667Y2892889D01*
X975333Y2891778D01*
X976667Y2889556D01*
X976667Y2887333D01*
X975333Y2885111D01*
X972667Y2884000D01*
X970000Y2884000D01*
X967333Y2885111D01*
X966000Y2887333D01*
G54D10*
X981556Y2895111D02*
X988223Y2901778D01*
X988223Y2884000D01*
G54D10*
X804000Y2898444D02*
X805333Y2900667D01*
X808000Y2901778D01*
X810667Y2901778D01*
X813333Y2900667D01*
X814667Y2898444D01*
X814667Y2896222D01*
X813333Y2894000D01*
X810667Y2892889D01*
X813333Y2891778D01*
X814667Y2889556D01*
X814667Y2887333D01*
X813333Y2885111D01*
X810667Y2884000D01*
X808000Y2884000D01*
X805333Y2885111D01*
X804000Y2887333D01*
G54D10*
X830223Y2884000D02*
X819556Y2884000D01*
X819556Y2885111D01*
X820889Y2887333D01*
X828889Y2894000D01*
X830223Y2896222D01*
X830223Y2898444D01*
X828889Y2900667D01*
X826223Y2901778D01*
X823556Y2901778D01*
X820889Y2900667D01*
X819556Y2898444D01*
G54D10*
X644000Y2900444D02*
X645334Y2902667D01*
X648000Y2903778D01*
X650666Y2903778D01*
X653334Y2902667D01*
X654666Y2900444D01*
X654666Y2898222D01*
X653334Y2896000D01*
X650666Y2894889D01*
X653334Y2893778D01*
X654666Y2891556D01*
X654666Y2889333D01*
X653334Y2887111D01*
X650666Y2886000D01*
X648000Y2886000D01*
X645334Y2887111D01*
X644000Y2889333D01*
G54D10*
X659556Y2900444D02*
X660890Y2902667D01*
X663556Y2903778D01*
X666222Y2903778D01*
X668890Y2902667D01*
X670222Y2900444D01*
X670222Y2898222D01*
X668890Y2896000D01*
X666222Y2894889D01*
X668890Y2893778D01*
X670222Y2891556D01*
X670222Y2889333D01*
X668890Y2887111D01*
X666222Y2886000D01*
X663556Y2886000D01*
X660890Y2887111D01*
X659556Y2889333D01*
G54D10*
X484000Y2900444D02*
X485333Y2902667D01*
X488000Y2903778D01*
X490667Y2903778D01*
X493333Y2902667D01*
X494667Y2900444D01*
X494667Y2898222D01*
X493333Y2896000D01*
X490667Y2894889D01*
X493333Y2893778D01*
X494667Y2891556D01*
X494667Y2889333D01*
X493333Y2887111D01*
X490667Y2886000D01*
X488000Y2886000D01*
X485333Y2887111D01*
X484000Y2889333D01*
G54D10*
X507556Y2886000D02*
X507556Y2903778D01*
X499556Y2892667D01*
X499556Y2890444D01*
X510223Y2890444D01*
G54D10*
X68000Y2856444D02*
X69333Y2858667D01*
X72000Y2859778D01*
X74667Y2859778D01*
X77333Y2858667D01*
X78667Y2856444D01*
X78667Y2854222D01*
X77333Y2852000D01*
X74667Y2850889D01*
X77333Y2849778D01*
X78667Y2847556D01*
X78667Y2845333D01*
X77333Y2843111D01*
X74667Y2842000D01*
X72000Y2842000D01*
X69333Y2843111D01*
X68000Y2845333D01*
G54D10*
X94223Y2859778D02*
X83556Y2859778D01*
X83556Y2852000D01*
X84889Y2852000D01*
X87556Y2853111D01*
X90223Y2853111D01*
X92889Y2852000D01*
X94223Y2849778D01*
X94223Y2845333D01*
X92889Y2843111D01*
X90223Y2842000D01*
X87556Y2842000D01*
X84889Y2843111D01*
X83556Y2845333D01*
G54D10*
X66000Y2706444D02*
X67333Y2708667D01*
X70000Y2709778D01*
X72667Y2709778D01*
X75333Y2708667D01*
X76667Y2706444D01*
X76667Y2704222D01*
X75333Y2702000D01*
X72667Y2700889D01*
X75333Y2699778D01*
X76667Y2697556D01*
X76667Y2695333D01*
X75333Y2693111D01*
X72667Y2692000D01*
X70000Y2692000D01*
X67333Y2693111D01*
X66000Y2695333D01*
G54D10*
X92223Y2706444D02*
X90889Y2708667D01*
X88223Y2709778D01*
X85556Y2709778D01*
X82889Y2708667D01*
X81556Y2706444D01*
X81556Y2700889D01*
X81556Y2699778D01*
X85556Y2702000D01*
X88223Y2702000D01*
X90889Y2700889D01*
X92223Y2698667D01*
X92223Y2695333D01*
X90889Y2693111D01*
X88223Y2692000D01*
X85556Y2692000D01*
X82889Y2693111D01*
X81556Y2695333D01*
X81556Y2700889D01*
G54D10*
X66000Y2546444D02*
X67333Y2548667D01*
X70000Y2549778D01*
X72667Y2549778D01*
X75333Y2548667D01*
X76667Y2546444D01*
X76667Y2544222D01*
X75333Y2542000D01*
X72667Y2540889D01*
X75333Y2539778D01*
X76667Y2537556D01*
X76667Y2535333D01*
X75333Y2533111D01*
X72667Y2532000D01*
X70000Y2532000D01*
X67333Y2533111D01*
X66000Y2535333D01*
G54D10*
X81556Y2549778D02*
X92223Y2549778D01*
X90889Y2547556D01*
X88223Y2544222D01*
X85556Y2539778D01*
X84223Y2536444D01*
X84223Y2532000D01*
G54D10*
X64000Y2396444D02*
X65333Y2398667D01*
X68000Y2399778D01*
X70667Y2399778D01*
X73333Y2398667D01*
X74667Y2396444D01*
X74667Y2394222D01*
X73333Y2392000D01*
X70667Y2390889D01*
X73333Y2389778D01*
X74667Y2387556D01*
X74667Y2385333D01*
X73333Y2383111D01*
X70667Y2382000D01*
X68000Y2382000D01*
X65333Y2383111D01*
X64000Y2385333D01*
G54D10*
X86223Y2390889D02*
X83556Y2390889D01*
X80889Y2392000D01*
X79556Y2394222D01*
X79556Y2396444D01*
X80889Y2398667D01*
X83556Y2399778D01*
X86223Y2399778D01*
X88889Y2398667D01*
X90223Y2396444D01*
X90223Y2394222D01*
X88889Y2392000D01*
X86223Y2390889D01*
X88889Y2389778D01*
X90223Y2387556D01*
X90223Y2385333D01*
X88889Y2383111D01*
X86223Y2382000D01*
X83556Y2382000D01*
X80889Y2383111D01*
X79556Y2385333D01*
X79556Y2387556D01*
X80889Y2389778D01*
X83556Y2390889D01*
G54D10*
X3176667Y1720000D02*
X3166000Y1720000D01*
X3166000Y1721111D01*
X3167333Y1723333D01*
X3175333Y1730000D01*
X3176667Y1732222D01*
X3176667Y1734444D01*
X3175333Y1736667D01*
X3172667Y1737778D01*
X3170000Y1737778D01*
X3167333Y1736667D01*
X3166000Y1734444D01*
G54D10*
X3192223Y1734444D02*
X3192223Y1723333D01*
X3190889Y1721111D01*
X3188223Y1720000D01*
X3185556Y1720000D01*
X3182889Y1721111D01*
X3181556Y1723333D01*
X3181556Y1734444D01*
X3182889Y1736667D01*
X3185556Y1737778D01*
X3188223Y1737778D01*
X3190889Y1736667D01*
X3192223Y1734444D01*
G54D10*
X1970000Y2852000D02*
X1976667Y2869778D01*
X1983333Y2852000D01*
G54D10*
X1972667Y2858667D02*
X1980667Y2858667D01*
G54D10*
X1998889Y2852000D02*
X1988222Y2852000D01*
X1988222Y2853111D01*
X1989555Y2855333D01*
X1997555Y2862000D01*
X1998889Y2864222D01*
X1998889Y2866444D01*
X1997555Y2868667D01*
X1994889Y2869778D01*
X1992222Y2869778D01*
X1989555Y2868667D01*
X1988222Y2866444D01*
G54D10*
X1734000Y2851778D02*
X1744667Y2851778D01*
G54D10*
X1739333Y2856222D02*
X1739333Y2847333D01*
G54D10*
X1749556Y2855111D02*
X1756223Y2861778D01*
X1756223Y2844000D01*
G54D10*
X1771779Y2844000D02*
X1761112Y2844000D01*
X1761112Y2845111D01*
X1762445Y2847333D01*
X1770445Y2854000D01*
X1771779Y2856222D01*
X1771779Y2858444D01*
X1770445Y2860667D01*
X1767779Y2861778D01*
X1765112Y2861778D01*
X1762445Y2860667D01*
X1761112Y2858444D01*
G54D10*
X1776668Y2861778D02*
X1783335Y2844000D01*
X1790001Y2861778D01*
G54D10*
X1312000Y2852000D02*
X1318667Y2869778D01*
X1325333Y2852000D01*
G54D10*
X1314667Y2858667D02*
X1322667Y2858667D01*
G54D10*
X1330222Y2866444D02*
X1331555Y2868667D01*
X1334222Y2869778D01*
X1336889Y2869778D01*
X1339555Y2868667D01*
X1340889Y2866444D01*
X1340889Y2864222D01*
X1339555Y2862000D01*
X1336889Y2860889D01*
X1339555Y2859778D01*
X1340889Y2857556D01*
X1340889Y2855333D01*
X1339555Y2853111D01*
X1336889Y2852000D01*
X1334222Y2852000D01*
X1331555Y2853111D01*
X1330222Y2855333D01*
G54D10*
X1154000Y2852000D02*
X1160667Y2869778D01*
X1167333Y2852000D01*
G54D10*
X1156667Y2858667D02*
X1164667Y2858667D01*
G54D10*
X1180222Y2852000D02*
X1180222Y2869778D01*
X1172222Y2858667D01*
X1172222Y2856444D01*
X1182889Y2856444D01*
G54D10*
X998000Y2850000D02*
X1004667Y2867778D01*
X1011333Y2850000D01*
G54D10*
X1000667Y2856667D02*
X1008667Y2856667D01*
G54D10*
X1026889Y2867778D02*
X1016222Y2867778D01*
X1016222Y2860000D01*
X1017555Y2860000D01*
X1020222Y2861111D01*
X1022889Y2861111D01*
X1025555Y2860000D01*
X1026889Y2857778D01*
X1026889Y2853333D01*
X1025555Y2851111D01*
X1022889Y2850000D01*
X1020222Y2850000D01*
X1017555Y2851111D01*
X1016222Y2853333D01*
G54D10*
X836000Y2848000D02*
X842667Y2865778D01*
X849333Y2848000D01*
G54D10*
X838667Y2854667D02*
X846667Y2854667D01*
G54D10*
X864889Y2862444D02*
X863555Y2864667D01*
X860889Y2865778D01*
X858222Y2865778D01*
X855555Y2864667D01*
X854222Y2862444D01*
X854222Y2856889D01*
X854222Y2855778D01*
X858222Y2858000D01*
X860889Y2858000D01*
X863555Y2856889D01*
X864889Y2854667D01*
X864889Y2851333D01*
X863555Y2849111D01*
X860889Y2848000D01*
X858222Y2848000D01*
X855555Y2849111D01*
X854222Y2851333D01*
X854222Y2856889D01*
G54D10*
X94000Y2810000D02*
X100667Y2827778D01*
X107333Y2810000D01*
G54D10*
X96667Y2816667D02*
X104667Y2816667D01*
G54D10*
X112222Y2813333D02*
X113555Y2811111D01*
X116222Y2810000D01*
X118889Y2810000D01*
X121555Y2811111D01*
X122889Y2813333D01*
X122889Y2818889D01*
X122889Y2820000D01*
X118889Y2817778D01*
X116222Y2817778D01*
X113555Y2818889D01*
X112222Y2821111D01*
X112222Y2824444D01*
X113555Y2826667D01*
X116222Y2827778D01*
X118889Y2827778D01*
X121555Y2826667D01*
X122889Y2824444D01*
X122889Y2818889D01*
G54D10*
X82000Y2656000D02*
X88667Y2673778D01*
X95333Y2656000D01*
G54D10*
X84667Y2662667D02*
X92667Y2662667D01*
G54D10*
X100222Y2667111D02*
X106889Y2673778D01*
X106889Y2656000D01*
G54D10*
X122445Y2673778D02*
X111778Y2673778D01*
X111778Y2666000D01*
X113111Y2666000D01*
X115778Y2667111D01*
X118445Y2667111D01*
X121111Y2666000D01*
X122445Y2663778D01*
X122445Y2659333D01*
X121111Y2657111D01*
X118445Y2656000D01*
X115778Y2656000D01*
X113111Y2657111D01*
X111778Y2659333D01*
G54D10*
X88000Y2500000D02*
X94667Y2517778D01*
X101333Y2500000D01*
G54D10*
X90667Y2506667D02*
X98667Y2506667D01*
G54D10*
X106222Y2511111D02*
X112889Y2517778D01*
X112889Y2500000D01*
G54D10*
X128445Y2500000D02*
X117778Y2500000D01*
X117778Y2501111D01*
X119111Y2503333D01*
X127111Y2510000D01*
X128445Y2512222D01*
X128445Y2514444D01*
X127111Y2516667D01*
X124445Y2517778D01*
X121778Y2517778D01*
X119111Y2516667D01*
X117778Y2514444D01*
G54D10*
X90000Y2036000D02*
X96667Y2053778D01*
X103333Y2036000D01*
G54D10*
X92667Y2042667D02*
X100667Y2042667D01*
G54D10*
X108222Y2047111D02*
X114889Y2053778D01*
X114889Y2036000D01*
G54D10*
X119778Y2047111D02*
X126445Y2053778D01*
X126445Y2036000D01*
G54D10*
X92000Y1880000D02*
X98667Y1897778D01*
X105333Y1880000D01*
G54D10*
X94667Y1886667D02*
X102667Y1886667D01*
G54D10*
X110222Y1891111D02*
X116889Y1897778D01*
X116889Y1880000D01*
G54D10*
X132445Y1894444D02*
X132445Y1883333D01*
X131111Y1881111D01*
X128445Y1880000D01*
X125778Y1880000D01*
X123111Y1881111D01*
X121778Y1883333D01*
X121778Y1894444D01*
X123111Y1896667D01*
X125778Y1897778D01*
X128445Y1897778D01*
X131111Y1896667D01*
X132445Y1894444D01*
G54D10*
X107333Y1674889D02*
X112667Y1674889D01*
X112667Y1669333D01*
X111333Y1667111D01*
X108667Y1666000D01*
X106000Y1666000D01*
X103333Y1667111D01*
X102000Y1669333D01*
X102000Y1680444D01*
X103333Y1682667D01*
X106000Y1683778D01*
X108667Y1683778D01*
X111333Y1682667D01*
X112667Y1680444D01*
G54D10*
X117556Y1666000D02*
X117556Y1683778D01*
X128223Y1666000D01*
X128223Y1683778D01*
G54D10*
X133112Y1666000D02*
X133112Y1683778D01*
X139779Y1683778D01*
X142445Y1682667D01*
X143779Y1680444D01*
X143779Y1669333D01*
X142445Y1667111D01*
X139779Y1666000D01*
X133112Y1666000D01*
G54D10*
X3196000Y2188000D02*
X3196000Y2205778D01*
X3205333Y2205778D01*
G54D10*
X3196000Y2196889D02*
X3205333Y2196889D01*
G54D10*
X3210222Y2199111D02*
X3216888Y2205778D01*
X3216888Y2188000D01*
G54D10*
X3179333Y2356889D02*
X3183333Y2354667D01*
X3184667Y2352444D01*
X3184667Y2348000D01*
G54D10*
X3174000Y2348000D02*
X3174000Y2365778D01*
X3180667Y2365778D01*
X3183333Y2364667D01*
X3184667Y2362444D01*
X3184667Y2360222D01*
X3183333Y2358000D01*
X3180667Y2356889D01*
X3174000Y2356889D01*
G54D10*
X3198889Y2348000D02*
X3189556Y2348000D01*
X3189556Y2365778D01*
X3198889Y2365778D01*
G54D10*
X3189556Y2356889D02*
X3198889Y2356889D01*
G54D10*
X3203778Y2348000D02*
X3210445Y2365778D01*
X3217111Y2348000D01*
G54D10*
X3206445Y2354667D02*
X3214445Y2354667D01*
G54D10*
X3222000Y2348000D02*
X3222000Y2365778D01*
X3228667Y2365778D01*
X3231333Y2364667D01*
X3232667Y2362444D01*
X3232667Y2351333D01*
X3231333Y2349111D01*
X3228667Y2348000D01*
X3222000Y2348000D01*
G54D10*
X3237556Y2365778D02*
X3244223Y2356889D01*
X3244223Y2348000D01*
G54D10*
X3244223Y2356889D02*
X3250889Y2365778D01*
G54D10*
X98000Y308000D02*
X98000Y325778D01*
X104667Y325778D01*
X107333Y324667D01*
X108667Y322444D01*
X108667Y311333D01*
X107333Y309111D01*
X104667Y308000D01*
X98000Y308000D01*
G54D10*
X113556Y325778D02*
X124223Y325778D01*
X122889Y323556D01*
X120223Y320222D01*
X117556Y315778D01*
X116223Y312444D01*
X116223Y308000D01*
G54D10*
X622000Y122000D02*
X622000Y139778D01*
X628667Y139778D01*
X631333Y138667D01*
X632667Y136444D01*
X632667Y125333D01*
X631333Y123111D01*
X628667Y122000D01*
X622000Y122000D01*
G54D10*
X637556Y136444D02*
X638889Y138667D01*
X641556Y139778D01*
X644223Y139778D01*
X646889Y138667D01*
X648223Y136444D01*
X648223Y134222D01*
X646889Y132000D01*
X644223Y130889D01*
X646889Y129778D01*
X648223Y127556D01*
X648223Y125333D01*
X646889Y123111D01*
X644223Y122000D01*
X641556Y122000D01*
X638889Y123111D01*
X637556Y125333D01*
G54D10*
X962000Y120000D02*
X962000Y137778D01*
X968667Y137778D01*
X971333Y136667D01*
X972667Y134444D01*
X972667Y123333D01*
X971333Y121111D01*
X968667Y120000D01*
X962000Y120000D01*
G54D10*
X988223Y120000D02*
X977556Y120000D01*
X977556Y121111D01*
X978889Y123333D01*
X986889Y130000D01*
X988223Y132222D01*
X988223Y134444D01*
X986889Y136667D01*
X984223Y137778D01*
X981556Y137778D01*
X978889Y136667D01*
X977556Y134444D01*
G54D10*
X1282000Y120000D02*
X1282000Y137778D01*
X1288667Y137778D01*
X1291333Y136667D01*
X1292667Y134444D01*
X1292667Y123333D01*
X1291333Y121111D01*
X1288667Y120000D01*
X1282000Y120000D01*
G54D10*
X1297556Y131111D02*
X1304223Y137778D01*
X1304223Y120000D01*
G54D10*
X1606000Y120000D02*
X1606000Y137778D01*
X1612667Y137778D01*
X1615333Y136667D01*
X1616667Y134444D01*
X1616667Y123333D01*
X1615333Y121111D01*
X1612667Y120000D01*
X1606000Y120000D01*
G54D10*
X1632223Y134444D02*
X1632223Y123333D01*
X1630889Y121111D01*
X1628223Y120000D01*
X1625556Y120000D01*
X1622889Y121111D01*
X1621556Y123333D01*
X1621556Y134444D01*
X1622889Y136667D01*
X1625556Y137778D01*
X1628223Y137778D01*
X1630889Y136667D01*
X1632223Y134444D01*
G54D10*
X3182000Y779333D02*
X3183333Y777111D01*
X3186000Y776000D01*
X3188666Y776000D01*
X3191333Y777111D01*
X3192666Y779333D01*
X3192666Y781556D01*
X3191333Y783778D01*
X3188666Y784889D01*
X3186000Y784889D01*
X3183333Y786000D01*
X3182000Y788222D01*
X3182000Y790444D01*
X3183333Y792667D01*
X3186000Y793778D01*
X3188666Y793778D01*
X3191333Y792667D01*
X3192666Y790444D01*
G54D10*
X3197556Y793778D02*
X3204222Y784889D01*
X3204222Y776000D01*
G54D10*
X3204222Y784889D02*
X3210889Y793778D01*
G54D10*
X3215778Y776000D02*
X3215778Y793778D01*
X3226444Y776000D01*
X3226444Y793778D01*
G54D10*
X3242000Y779333D02*
X3240667Y777111D01*
X3238000Y776000D01*
X3235334Y776000D01*
X3232667Y777111D01*
X3231334Y779333D01*
X3231334Y790444D01*
X3232667Y792667D01*
X3235334Y793778D01*
X3238000Y793778D01*
X3240667Y792667D01*
X3242000Y790444D01*
G54D10*
X3186000Y466000D02*
X3186000Y483778D01*
X3192667Y483778D01*
X3195334Y482667D01*
X3196667Y480444D01*
X3196667Y469333D01*
X3195334Y467111D01*
X3192667Y466000D01*
X3186000Y466000D01*
G54D10*
X3201556Y466000D02*
X3201556Y483778D01*
X3208223Y483778D01*
X3210890Y482667D01*
X3212223Y480444D01*
X3212223Y478222D01*
X3210890Y476000D01*
X3208223Y474889D01*
X3210890Y473778D01*
X3212223Y471556D01*
X3212223Y469333D01*
X3210890Y467111D01*
X3208223Y466000D01*
X3201556Y466000D01*
G54D10*
X3201556Y474889D02*
X3208223Y474889D01*
G54D10*
X3217112Y466000D02*
X3227779Y466000D01*
G54D10*
X3222446Y466000D02*
X3222446Y483778D01*
G54D10*
X3217112Y483778D02*
X3227779Y483778D01*
G54D10*
X3232668Y466000D02*
X3232668Y483778D01*
X3243335Y466000D01*
X3243335Y483778D01*
G54D10*
X3186000Y314000D02*
X3196667Y314000D01*
G54D10*
X3191334Y314000D02*
X3191334Y331778D01*
G54D10*
X3186000Y331778D02*
X3196667Y331778D01*
G54D10*
X3201556Y314000D02*
X3201556Y331778D01*
X3212223Y314000D01*
X3212223Y331778D01*
G54D10*
X3222446Y314000D02*
X3222446Y331778D01*
G54D10*
X3217112Y331778D02*
X3227779Y331778D01*
G54D10*
X3242002Y314000D02*
X3232668Y314000D01*
X3232668Y331778D01*
X3242002Y331778D01*
G54D10*
X3232668Y322889D02*
X3242002Y322889D01*
G54D10*
X92000Y2344000D02*
X98667Y2361778D01*
X105333Y2344000D01*
G54D10*
X94667Y2350667D02*
X102667Y2350667D01*
G54D10*
X110222Y2355111D02*
X116889Y2361778D01*
X116889Y2344000D01*
G54D10*
X121778Y2358444D02*
X123111Y2360667D01*
X125778Y2361778D01*
X128445Y2361778D01*
X131111Y2360667D01*
X132445Y2358444D01*
X132445Y2356222D01*
X131111Y2354000D01*
X128445Y2352889D01*
X131111Y2351778D01*
X132445Y2349556D01*
X132445Y2347333D01*
X131111Y2345111D01*
X128445Y2344000D01*
X125778Y2344000D01*
X123111Y2345111D01*
X121778Y2347333D01*
G54D10*
X2244000Y118000D02*
X2244000Y135778D01*
G54D10*
X2254667Y118000D02*
X2254667Y135778D01*
G54D10*
X2244000Y126889D02*
X2254667Y126889D01*
G54D10*
X2270223Y132444D02*
X2270223Y121333D01*
X2268889Y119111D01*
X2266223Y118000D01*
X2263556Y118000D01*
X2260889Y119111D01*
X2259556Y121333D01*
X2259556Y132444D01*
X2260889Y134667D01*
X2263556Y135778D01*
X2266223Y135778D01*
X2268889Y134667D01*
X2270223Y132444D01*
G54D10*
X2275112Y135778D02*
X2275112Y118000D01*
X2284445Y118000D01*
G54D10*
X2289334Y118000D02*
X2289334Y135778D01*
X2296001Y135778D01*
X2298667Y134667D01*
X2300001Y132444D01*
X2300001Y121333D01*
X2298667Y119111D01*
X2296001Y118000D01*
X2289334Y118000D01*
G54D10*
X2045333Y128889D02*
X2049333Y126667D01*
X2050667Y124444D01*
X2050667Y120000D01*
G54D10*
X2040000Y120000D02*
X2040000Y137778D01*
X2046667Y137778D01*
X2049333Y136667D01*
X2050667Y134444D01*
X2050667Y132222D01*
X2049333Y130000D01*
X2046667Y128889D01*
X2040000Y128889D01*
G54D10*
X2064889Y120000D02*
X2055556Y120000D01*
X2055556Y137778D01*
X2064889Y137778D01*
G54D10*
X2055556Y128889D02*
X2064889Y128889D01*
G54D10*
X2069778Y123333D02*
X2071111Y121111D01*
X2073778Y120000D01*
X2076445Y120000D01*
X2079111Y121111D01*
X2080445Y123333D01*
X2080445Y125556D01*
X2079111Y127778D01*
X2076445Y128889D01*
X2073778Y128889D01*
X2071111Y130000D01*
X2069778Y132222D01*
X2069778Y134444D01*
X2071111Y136667D01*
X2073778Y137778D01*
X2076445Y137778D01*
X2079111Y136667D01*
X2080445Y134444D01*
G54D10*
X2094667Y120000D02*
X2085334Y120000D01*
X2085334Y137778D01*
X2094667Y137778D01*
G54D10*
X2085334Y128889D02*
X2094667Y128889D01*
G54D10*
X2104889Y120000D02*
X2104889Y137778D01*
G54D10*
X2099556Y137778D02*
X2110223Y137778D01*
G54D10*
X2444000Y122000D02*
X2454667Y122000D01*
G54D10*
X2449333Y122000D02*
X2449333Y139778D01*
G54D10*
X2444000Y139778D02*
X2454667Y139778D01*
G54D10*
X2459556Y122000D02*
X2459556Y139778D01*
X2470223Y122000D01*
X2470223Y139778D01*
G54D10*
X2480445Y122000D02*
X2480445Y139778D01*
G54D10*
X2475112Y139778D02*
X2485779Y139778D01*
G54D10*
X3200000Y158000D02*
X3200000Y175778D01*
X3209333Y175778D01*
G54D10*
X3200000Y166889D02*
X3209333Y166889D01*
G54D10*
X3224889Y158000D02*
X3214222Y158000D01*
X3214222Y159111D01*
X3215555Y161333D01*
X3223555Y168000D01*
X3224889Y170222D01*
X3224889Y172444D01*
X3223555Y174667D01*
X3220889Y175778D01*
X3218222Y175778D01*
X3215555Y174667D01*
X3214222Y172444D01*
G54D10*
X3182000Y1645778D02*
X3192666Y1645778D01*
G54D10*
X3187334Y1650222D02*
X3187334Y1641334D01*
G54D10*
X3208222Y1655778D02*
X3197556Y1655778D01*
X3197556Y1648000D01*
X3198890Y1648000D01*
X3201556Y1649111D01*
X3204222Y1649111D01*
X3206890Y1648000D01*
X3208222Y1645778D01*
X3208222Y1641334D01*
X3206890Y1639111D01*
X3204222Y1638000D01*
X3201556Y1638000D01*
X3198890Y1639111D01*
X3197556Y1641334D01*
G54D10*
X3213112Y1655778D02*
X3219778Y1638000D01*
X3226446Y1655778D01*
G54D10*
X64000Y2240444D02*
X65333Y2242667D01*
X68000Y2243778D01*
X70667Y2243778D01*
X73333Y2242667D01*
X74667Y2240444D01*
X74667Y2238222D01*
X73333Y2236000D01*
X70667Y2234889D01*
X73333Y2233778D01*
X74667Y2231556D01*
X74667Y2229333D01*
X73333Y2227111D01*
X70667Y2226000D01*
X68000Y2226000D01*
X65333Y2227111D01*
X64000Y2229333D01*
G54D10*
X79556Y2229333D02*
X80889Y2227111D01*
X83556Y2226000D01*
X86223Y2226000D01*
X88889Y2227111D01*
X90223Y2229333D01*
X90223Y2234889D01*
X90223Y2236000D01*
X86223Y2233778D01*
X83556Y2233778D01*
X80889Y2234889D01*
X79556Y2237111D01*
X79556Y2240444D01*
X80889Y2242667D01*
X83556Y2243778D01*
X86223Y2243778D01*
X88889Y2242667D01*
X90223Y2240444D01*
X90223Y2234889D01*
G54D10*
X90000Y2192000D02*
X96667Y2209778D01*
X103333Y2192000D01*
G54D10*
X92667Y2198667D02*
X100667Y2198667D01*
G54D10*
X108222Y2203111D02*
X114889Y2209778D01*
X114889Y2192000D01*
G54D10*
X127778Y2192000D02*
X127778Y2209778D01*
X119778Y2198667D01*
X119778Y2196444D01*
X130445Y2196444D01*
G54D10*
X3184000Y1846000D02*
X3184000Y1863778D01*
G54D10*
X3194666Y1846000D02*
X3194666Y1863778D01*
G54D10*
X3184000Y1854889D02*
X3194666Y1854889D01*
G54D10*
X3199556Y1863778D02*
X3199556Y1846000D01*
X3208889Y1846000D01*
G54D10*
X3213778Y1846000D02*
X3213778Y1863778D01*
X3220444Y1863778D01*
X3223111Y1862667D01*
X3224444Y1860444D01*
X3224444Y1849333D01*
X3223111Y1847111D01*
X3220444Y1846000D01*
X3213778Y1846000D01*
G54D10*
X3229334Y1846000D02*
X3236000Y1863778D01*
X3242667Y1846000D01*
G54D10*
X3232000Y1852667D02*
X3240000Y1852667D01*
G54D10*
X3164000Y823111D02*
X3170667Y829778D01*
X3170667Y812000D01*
G54D10*
X3175556Y815333D02*
X3176889Y813111D01*
X3179556Y812000D01*
X3182223Y812000D01*
X3184889Y813111D01*
X3186223Y815333D01*
X3186223Y820889D01*
X3186223Y822000D01*
X3182223Y819778D01*
X3179556Y819778D01*
X3176889Y820889D01*
X3175556Y823111D01*
X3175556Y826444D01*
X3176889Y828667D01*
X3179556Y829778D01*
X3182223Y829778D01*
X3184889Y828667D01*
X3186223Y826444D01*
X3186223Y820889D01*
G54D10*
X3162000Y669111D02*
X3168667Y675778D01*
X3168667Y658000D01*
G54D10*
X3180223Y666889D02*
X3177556Y666889D01*
X3174889Y668000D01*
X3173556Y670222D01*
X3173556Y672444D01*
X3174889Y674667D01*
X3177556Y675778D01*
X3180223Y675778D01*
X3182889Y674667D01*
X3184223Y672444D01*
X3184223Y670222D01*
X3182889Y668000D01*
X3180223Y666889D01*
X3182889Y665778D01*
X3184223Y663556D01*
X3184223Y661333D01*
X3182889Y659111D01*
X3180223Y658000D01*
X3177556Y658000D01*
X3174889Y659111D01*
X3173556Y661333D01*
X3173556Y663556D01*
X3174889Y665778D01*
X3177556Y666889D01*
G54D10*
X3196000Y639778D02*
X3196000Y622000D01*
X3202666Y633111D01*
X3209333Y622000D01*
X3209333Y639778D01*
G54D10*
X3219555Y630889D02*
X3223555Y628667D01*
X3224888Y626444D01*
X3224888Y622000D01*
G54D10*
X3214222Y622000D02*
X3214222Y639778D01*
X3220888Y639778D01*
X3223555Y638667D01*
X3224888Y636444D01*
X3224888Y634222D01*
X3223555Y632000D01*
X3220888Y630889D01*
X3214222Y630889D01*
G54D10*
X3166000Y513111D02*
X3172667Y519778D01*
X3172667Y502000D01*
G54D10*
X3177556Y519778D02*
X3188223Y519778D01*
X3186889Y517556D01*
X3184223Y514222D01*
X3181556Y509778D01*
X3180223Y506444D01*
X3180223Y502000D01*
G54D10*
X3168000Y359111D02*
X3174667Y365778D01*
X3174667Y348000D01*
G54D10*
X3190223Y362444D02*
X3188889Y364667D01*
X3186223Y365778D01*
X3183556Y365778D01*
X3180889Y364667D01*
X3179556Y362444D01*
X3179556Y356889D01*
X3179556Y355778D01*
X3183556Y358000D01*
X3186223Y358000D01*
X3188889Y356889D01*
X3190223Y354667D01*
X3190223Y351333D01*
X3188889Y349111D01*
X3186223Y348000D01*
X3183556Y348000D01*
X3180889Y349111D01*
X3179556Y351333D01*
X3179556Y356889D01*
G54D10*
X514000Y2850000D02*
X520667Y2867778D01*
X527333Y2850000D01*
G54D10*
X516667Y2856667D02*
X524667Y2856667D01*
G54D10*
X538889Y2858889D02*
X536222Y2858889D01*
X533555Y2860000D01*
X532222Y2862222D01*
X532222Y2864444D01*
X533555Y2866667D01*
X536222Y2867778D01*
X538889Y2867778D01*
X541555Y2866667D01*
X542889Y2864444D01*
X542889Y2862222D01*
X541555Y2860000D01*
X538889Y2858889D01*
X541555Y2857778D01*
X542889Y2855556D01*
X542889Y2853333D01*
X541555Y2851111D01*
X538889Y2850000D01*
X536222Y2850000D01*
X533555Y2851111D01*
X532222Y2853333D01*
X532222Y2855556D01*
X533555Y2857778D01*
X536222Y2858889D01*
G54D10*
X676000Y2850000D02*
X682667Y2867778D01*
X689333Y2850000D01*
G54D10*
X678667Y2856667D02*
X686667Y2856667D01*
G54D10*
X694222Y2867778D02*
X704889Y2867778D01*
X703555Y2865556D01*
X700889Y2862222D01*
X698222Y2857778D01*
X696889Y2854444D01*
X696889Y2850000D01*
G54D10*
X3196000Y2672000D02*
X3202666Y2689778D01*
X3209333Y2672000D01*
G54D10*
X3198666Y2678667D02*
X3206666Y2678667D01*
G54D10*
X3224888Y2686444D02*
X3224888Y2675333D01*
X3223555Y2673111D01*
X3220888Y2672000D01*
X3218222Y2672000D01*
X3215555Y2673111D01*
X3214222Y2675333D01*
X3214222Y2686444D01*
X3215555Y2688667D01*
X3218222Y2689778D01*
X3220888Y2689778D01*
X3223555Y2688667D01*
X3224888Y2686444D01*
G54D10*
X3196000Y2822000D02*
X3202666Y2839778D01*
X3209333Y2822000D01*
G54D10*
X3198666Y2828667D02*
X3206666Y2828667D01*
G54D10*
X3214222Y2833111D02*
X3220888Y2839778D01*
X3220888Y2822000D01*
M02*
